<?xml version="1.0" encoding="UTF-8"?>
<svg width="169px" height="116px" viewBox="0 0 169 116" version="1.1" xmlns="http://www.w3.org/2000/svg" xmlns:xlink="http://www.w3.org/1999/xlink">
    <title>vm</title>
    <g id="makers" stroke="none" stroke-width="1" fill="none" fill-rule="evenodd">
        <g id="vm">
            <g id="Group-6" transform="translate(0.690925, 73.695205)" fill="#454B56" fill-rule="nonzero">
                <path d="M54.7034891,36.7805106 C54.9924057,36.7805106 55.2813223,36.6783935 55.5702388,36.4741594 C55.8591554,36.2699253 56.1306373,36.0233499 56.3846847,35.7344334 C56.638732,35.4455168 56.8678727,35.1466376 57.0721068,34.8377958 C57.276341,34.5289539 57.4382339,34.264944 57.5577855,34.0457659 C57.6374867,33.9062889 57.6574119,33.7842466 57.6175614,33.6796389 C57.5777108,33.5750311 57.5129537,33.5227273 57.4232899,33.5227273 C57.3037382,33.5227273 57.1891679,33.5974471 57.0795788,33.7468867 C57.0098403,33.8465131 56.8927793,33.9959527 56.7283957,34.1952055 C56.5640122,34.3944583 56.389666,34.5912204 56.2053571,34.7854919 C56.0210483,34.9797634 55.8442114,35.1516189 55.6748466,35.3010585 C55.5054817,35.4504981 55.3759674,35.5252179 55.2863036,35.5252179 C55.2066025,35.5252179 55.1717332,35.4330635 55.1816959,35.2487547 C55.1916585,35.0644458 55.2240371,34.8452677 55.2788316,34.5912204 C55.3336261,34.3371731 55.3909113,34.0806351 55.4506872,33.8216065 C55.510463,33.5625778 55.5503136,33.3583437 55.5702388,33.2089041 C55.5901641,33.0694271 55.6001268,32.9249689 55.6001268,32.7755293 C55.6001268,32.6260897 55.5851828,32.4816314 55.5552949,32.3421544 C55.5054817,32.1429016 55.4108366,31.9760274 55.2713596,31.8415318 C55.1318827,31.7070361 54.9525552,31.6397883 54.7333771,31.6397883 C54.5939001,31.6397883 54.4594045,31.6896015 54.3298901,31.7892279 C54.2402264,31.8490037 54.125656,31.9710461 53.9861791,32.1553549 C53.8467021,32.3396638 53.7072251,32.5314446 53.5677482,32.7306974 C53.3983833,32.9698007 53.2290184,33.2238481 53.0596535,33.4928394 C53.0596535,33.4729141 53.0721068,33.3807597 53.0970134,33.2163761 C53.12192,33.0519925 53.1542986,32.857721 53.1941492,32.6335616 C53.2339997,32.4094022 53.276341,32.1777709 53.3211728,31.9386675 C53.3660047,31.6995641 53.4033646,31.49533 53.4332525,31.3259651 C53.4631405,31.1765255 53.5079723,30.9698007 53.5677482,30.7057908 C53.627524,30.4417808 53.6872999,30.1578456 53.7470757,29.8539851 C53.8068515,29.5501245 53.8566647,29.2412827 53.8965153,28.9274595 C53.9363659,28.6136364 53.9538005,28.3272105 53.9488192,28.0681818 C53.9438378,27.8091532 53.9064779,27.5999377 53.8367395,27.4405355 C53.767001,27.2811333 53.6474493,27.2014321 53.4780844,27.2014321 C53.3286448,27.2014321 53.1767146,27.3284558 53.0222936,27.5825031 C52.8678727,27.8365504 52.7209238,28.1678082 52.5814468,28.5762765 C52.4419698,28.9847447 52.3074742,29.4405355 52.1779599,29.9436488 C52.0484456,30.4467621 51.9313845,30.9473848 51.8267768,31.4455168 C51.7221691,31.9436488 51.6325053,32.4094022 51.5577855,32.8427771 C51.4830657,33.2761519 51.4257806,33.6323163 51.38593,33.9112702 C51.3261542,34.3097758 51.3012476,34.6833748 51.3112102,35.0320672 C51.3211728,35.1416563 51.3460794,35.2736613 51.38593,35.4280822 C51.4257806,35.5825031 51.4830657,35.7319427 51.5577855,35.876401 C51.6325053,36.0208593 51.7246598,36.1429016 51.8342488,36.242528 C51.9438378,36.3421544 52.0633895,36.3919676 52.1929038,36.3919676 C52.3224182,36.3919676 52.4569138,36.3371731 52.5963908,36.2275841 C52.6960172,36.1379203 52.8105875,35.9785181 52.9401019,35.7493773 C53.0696162,35.5202366 53.2041118,35.2711706 53.3435888,35.0021793 C53.4830657,34.733188 53.6150707,34.4716687 53.7396037,34.2176214 C53.8641367,33.9635741 53.9662538,33.7717933 54.0459549,33.642279 C54.0459549,33.642279 54.0335016,33.7169988 54.008595,33.8664384 C53.9836884,34.015878 53.9538005,34.1976961 53.9189312,34.4118929 C53.884062,34.6260897 53.8516834,34.8502491 53.8217955,35.0843711 C53.7919076,35.3184932 53.7819449,35.5202366 53.7919076,35.6896015 C53.8118329,35.9685554 53.8940246,36.2201121 54.0384829,36.4442715 C54.1829412,36.6684309 54.4046099,36.7805106 54.7034891,36.7805106 Z M59.2106827,36.7805106 C59.5294872,36.7805106 59.8507824,36.7082814 60.1745682,36.5638232 C60.498354,36.4193649 60.8071958,36.2375467 61.1010937,36.0183686 C61.3949916,35.7991905 61.6689642,35.5625778 61.9230115,35.3085305 C62.1770588,35.0544832 62.3987276,34.8153798 62.5880177,34.5912204 C62.7773079,34.367061 62.9267475,34.1777709 63.0363365,34.0233499 C63.1459256,33.868929 63.2007201,33.7867372 63.2007201,33.7767746 C63.2505333,33.5575965 63.1857761,33.4181196 63.0064486,33.3583437 C62.9765607,33.3483811 62.9416914,33.3433998 62.9018409,33.3433998 C62.7723266,33.3433998 62.6677188,33.4081569 62.5880177,33.5376712 C62.5780551,33.5675592 62.5083166,33.6572229 62.3788023,33.8066625 C62.249288,33.9561021 62.0774324,34.1354296 61.8632357,34.3446451 C61.6490389,34.5538605 61.3999729,34.7705479 61.1160377,34.9947073 C60.8321024,35.2188667 60.5307325,35.4156289 60.2119281,35.5849938 C60.1222643,35.634807 60.0276192,35.6721669 59.9279928,35.6970735 C59.8283664,35.7219801 59.7337213,35.7344334 59.6440576,35.7344334 C59.3651037,35.7344334 59.1733228,35.6298257 59.0687151,35.4206102 C58.9641074,35.2113948 58.9068222,34.982254 58.8968596,34.733188 C58.8968596,34.6734122 58.9217662,34.6435243 58.9715794,34.6435243 L58.9715794,34.6435243 L59.0164112,34.6435243 C59.1160377,34.6634496 59.1907575,34.6734122 59.2405707,34.6734122 C59.4597487,34.6734122 59.6739455,34.623599 59.8831609,34.5239726 C60.0923764,34.4243462 60.2866479,34.2973225 60.4659754,34.1429016 C60.6453029,33.9884807 60.8071958,33.8166252 60.9516541,33.627335 C61.0961124,33.4380448 61.2081921,33.253736 61.2878932,33.0744085 C61.3675943,32.8751557 61.4248795,32.6709215 61.4597487,32.4617061 C61.494618,32.2524907 61.4921273,32.0382939 61.4522768,31.8191158 C61.4024636,31.4704234 61.2555146,31.1889788 61.0114299,30.9747821 C60.7673452,30.7605853 60.4709567,30.6534869 60.1222643,30.6534869 C59.6440576,30.6534869 59.2181547,30.7605853 58.8445557,30.9747821 C58.4709567,31.1889788 58.1521522,31.4654421 57.8881423,31.8041719 C57.6241323,32.1429016 57.4174075,32.5264633 57.2679679,32.9548568 C57.1185283,33.3832503 57.0288645,33.8116438 56.9989766,34.2400374 C56.9790513,34.5688045 57.0114299,34.8851183 57.0961124,35.1889788 C57.1807948,35.4928394 57.3327251,35.7742839 57.5519032,36.0333126 C57.721268,36.242528 57.9578807,36.4193649 58.2617413,36.5638232 C58.5656018,36.7082814 58.8819156,36.7805106 59.2106827,36.7805106 Z M59.1359629,33.7767746 C59.0363365,33.7767746 59.0014673,33.7169988 59.0313552,33.5974471 C59.0612431,33.5077833 59.1085657,33.385741 59.1733228,33.23132 C59.23808,33.0768991 59.3152905,32.9224782 59.4049542,32.7680573 C59.494618,32.6136364 59.5942444,32.4816314 59.7038334,32.3720423 C59.8134225,32.2624533 59.9279928,32.2076588 60.0475445,32.2076588 C60.117283,32.2076588 60.1621149,32.242528 60.1820401,32.3122665 C60.2019654,32.382005 60.2119281,32.4417808 60.2119281,32.491594 C60.2119281,32.6211083 60.1795495,32.7605853 60.1147923,32.9100249 C60.0500352,33.0594645 59.970334,33.1989415 59.875689,33.3284558 C59.7810439,33.4579701 59.6689642,33.5650685 59.5394499,33.6497509 C59.4099355,33.7344334 59.2754399,33.7767746 59.1359629,33.7767746 Z M66.6917244,36.9598381 C66.9806409,36.9598381 67.2546136,36.8701743 67.5136422,36.6908468 C67.9121478,36.4218555 68.2732935,36.1304483 68.5970793,35.8166252 C68.9208651,35.502802 69.199819,35.2064134 69.4339411,34.9274595 C69.6680631,34.6485056 69.852372,34.4094022 69.9868676,34.2101494 C70.1213632,34.0108966 70.1935924,33.891345 70.203555,33.8514944 C70.2533682,33.6721669 70.218499,33.5426526 70.0989473,33.4629514 C70.0192462,33.4231009 69.954489,33.4031756 69.9046758,33.4031756 C69.7950868,33.4031756 69.6805164,33.4579701 69.5609647,33.5675592 C69.5410395,33.5974471 69.4214878,33.7194894 69.2023097,33.9336862 C68.9831316,34.1478829 68.7390469,34.382005 68.4700556,34.6360523 C68.2010644,34.8900996 67.9420357,35.1192403 67.6929697,35.3234745 C67.4439037,35.5277086 67.2745388,35.6298257 67.1848751,35.6298257 C67.0952113,35.6298257 67.0478888,35.5800125 67.0429074,35.4803861 C67.0379261,35.3807597 67.0503794,35.2562267 67.0802673,35.106787 C67.1101553,34.9573474 67.1524965,34.7979452 67.207291,34.6285803 C67.2620855,34.4592154 67.3094081,34.3097758 67.3492586,34.1802615 C67.4289598,33.9112702 67.5036796,33.6447696 67.573418,33.3807597 C67.6431565,33.1167497 67.7029324,32.8452677 67.7527456,32.5663138 C67.7726708,32.4467621 67.7851241,32.3297011 67.7901055,32.2151308 C67.7950868,32.1005604 67.7826335,31.9834994 67.7527456,31.8639477 C67.7029324,31.6846202 67.6232312,31.5451432 67.5136422,31.4455168 C67.4040532,31.3458904 67.2745388,31.2960772 67.1250992,31.2960772 C67.0055475,31.2960772 66.8859959,31.3259651 66.7664442,31.385741 C66.6369299,31.4455168 66.5298315,31.5277086 66.445149,31.6323163 C66.3604666,31.736924 66.2907281,31.8365504 66.2359336,31.9311955 C66.1811391,32.0258406 66.1412885,32.110523 66.1163819,32.1852428 C66.0914753,32.2599626 66.0690594,32.2973225 66.0491341,32.2973225 C66.0391715,32.2873599 66.0067929,32.2450187 65.9519984,32.1702989 C65.8972038,32.0955791 65.8199934,32.0133873 65.720367,31.9237235 C65.6207406,31.8340598 65.4986982,31.7543587 65.35424,31.6846202 C65.2097817,31.6148817 65.0379261,31.5800125 64.8386733,31.5800125 C64.5298315,31.5800125 64.2458962,31.6572229 63.9868676,31.8116438 C63.727839,31.9660648 63.4986982,32.1628269 63.2994454,32.4019303 C63.1001926,32.6410336 62.9333184,32.9050436 62.7988228,33.1939601 C62.6643271,33.4828767 62.5622101,33.7618306 62.4924716,34.0308219 C62.4127705,34.3097758 62.3878639,34.5937111 62.4177518,34.8826276 C62.4277144,35.0619552 62.4625837,35.2412827 62.5223595,35.4206102 C62.5821353,35.5999377 62.6668178,35.7618306 62.7764068,35.9062889 C62.8859959,36.0507472 63.0180008,36.1653176 63.1724218,36.25 C63.3268427,36.3346824 63.5086609,36.3770237 63.7178763,36.3770237 C64.0964566,36.3770237 64.4252238,36.2624533 64.7041777,36.0333126 C64.9831316,35.8041719 65.2272163,35.5501245 65.4364317,35.2711706 C65.4463944,35.4604608 65.4737916,35.6572229 65.5186235,35.861457 C65.5634554,36.0656912 65.6331939,36.2475093 65.727839,36.4069116 C65.822484,36.5663138 65.9495077,36.6983188 66.1089099,36.8029265 C66.2683122,36.9075342 66.4625837,36.9598381 66.6917244,36.9598381 Z M63.9420357,35.1665629 C63.8623346,35.1665629 63.8175027,35.1018057 63.8075401,34.9722914 C63.7975774,34.8427771 63.8150121,34.6883562 63.8598439,34.5090286 C63.9046758,34.3297011 63.969433,34.140411 64.0541154,33.9411582 C64.1387979,33.7419054 64.2359336,33.5675592 64.3455226,33.4181196 C64.5248502,33.1889788 64.6742898,33.0295766 64.7938414,32.9399128 C64.9133931,32.8502491 65.0130195,32.8054172 65.0927206,32.8054172 C65.1126459,32.8054172 65.1425338,32.8153798 65.1823844,32.8353051 C65.2421603,32.8950809 65.2795202,32.9772727 65.2944641,33.0818804 C65.3094081,33.1864882 65.3094081,33.2935866 65.2944641,33.4031756 C65.2795202,33.5127646 65.2571042,33.619863 65.2272163,33.7244707 C65.1973284,33.8290785 65.1574778,33.9062889 65.1076646,33.9561021 C65.0478888,34.0258406 64.973169,34.1304483 64.8835052,34.2699253 C64.7938414,34.4094022 64.6967057,34.5438979 64.592098,34.6734122 C64.4874903,34.8029265 64.3779012,34.9174969 64.2633309,35.0171233 C64.1487605,35.1167497 64.0416621,35.1665629 63.9420357,35.1665629 Z M70.8402629,36.631071 C71.0395157,36.631071 71.2238246,36.5962017 71.3931895,36.5264633 C71.7418819,36.3570984 72.0731396,36.132939 72.3869628,35.8539851 C72.700786,35.5750311 72.9822305,35.2960772 73.2312965,35.0171233 C73.4803626,34.7381694 73.682106,34.491594 73.8365269,34.2773973 C73.9909479,34.0632005 74.0831023,33.9361768 74.1129902,33.8963263 C74.172766,33.8166252 74.195182,33.7319427 74.180238,33.642279 C74.1652941,33.5526152 74.1378968,33.487858 74.0980462,33.4480075 C74.048233,33.3981943 73.9834759,33.3732877 73.9037748,33.3732877 C73.8439989,33.3732877 73.7742604,33.3907223 73.6945593,33.4255915 C73.6148582,33.4604608 73.5351571,33.5227273 73.455456,33.612391 C73.4454933,33.6223537 73.4006614,33.6696762 73.3209603,33.7543587 C73.2412592,33.8390411 73.1416328,33.9411582 73.0220811,34.0607098 C72.9025294,34.1802615 72.7680338,34.3122665 72.6185942,34.4567248 C72.4691546,34.6011831 72.3222056,34.733188 72.1777474,34.8527397 C72.0332891,34.9722914 71.8987934,35.0719178 71.7742604,35.1516189 C71.6497274,35.23132 71.5476104,35.2711706 71.4679093,35.2711706 C71.3882081,35.2711706 71.3259416,35.2363014 71.2811097,35.1665629 C71.2362779,35.0968244 71.2038993,35.0146326 71.183974,34.9199875 C71.1640487,34.8253425 71.1540861,34.7306974 71.1540861,34.6360523 L71.1540861,34.6360523 L71.1540861,34.4193649 C71.1640487,34.3297011 71.1939366,34.1603362 71.2437498,33.9112702 C71.293563,33.6622042 71.3533389,33.3658157 71.4230774,33.0221046 C71.4928159,32.6783935 71.572517,32.3047945 71.6621807,31.9013076 C71.7518445,31.4978207 71.8390176,31.0968244 71.9237,30.6983188 C72.0083825,30.2998132 72.0905743,29.9162516 72.1702754,29.5476339 C72.2499765,29.1790162 72.3147337,28.8602117 72.3645469,28.5912204 C72.4243227,28.2724159 72.4791172,27.9760274 72.5289304,27.7020548 C72.5787436,27.4280822 72.6011596,27.1864882 72.5961782,26.9772727 C72.5911969,26.7680573 72.5488557,26.6036737 72.4691546,26.484122 C72.3894535,26.3645704 72.2499765,26.3047945 72.0507237,26.3047945 C71.8514709,26.3047945 71.6547088,26.4567248 71.4604373,26.7605853 C71.2661658,27.0644458 71.0843476,27.4504981 70.9149827,27.9187422 C70.7456178,28.3869863 70.5862156,28.9050436 70.436776,29.4729141 C70.2873364,30.0407846 70.1553314,30.5887298 70.0407611,31.1167497 C69.9261907,31.6447696 69.8315456,32.117995 69.7568258,32.5364259 C69.682106,32.9548568 69.6298022,33.2487547 69.5999142,33.4181196 C69.5600637,33.6472603 69.5227038,33.8788917 69.4878345,34.1130137 C69.4529653,34.3471357 69.4355307,34.5937111 69.4355307,34.8527397 C69.425568,35.012142 69.4355307,35.1815068 69.4654186,35.3608344 C69.4953065,35.5401619 69.5550824,35.7145081 69.6447461,35.883873 C69.7742604,36.1229763 69.9436253,36.3072852 70.1528408,36.4367995 C70.3620562,36.5663138 70.5911969,36.631071 70.8402629,36.631071 Z M74.7048662,36.9299502 C75.0834465,36.9299502 75.4346296,36.8228518 75.7584154,36.608655 C76.0822012,36.3944583 76.3785898,36.1304483 76.647581,35.8166252 C76.9165723,35.502802 77.1556757,35.1640722 77.3648911,34.8004359 C77.5741066,34.4367995 77.7484528,34.1055417 77.8879297,33.8066625 C77.9377429,33.7070361 77.9277803,33.619863 77.8580418,33.5451432 C77.7883033,33.4704234 77.7036209,33.4330635 77.6039945,33.4330635 C77.4944055,33.4330635 77.409723,33.4828767 77.3499472,33.5825031 C77.300134,33.6622042 77.1930356,33.8290785 77.028652,34.0831258 C76.8642685,34.3371731 76.677469,34.5986924 76.4682535,34.8676837 C76.2590381,35.136675 76.0523133,35.378269 75.8480792,35.5924658 C75.6438451,35.8066625 75.4719895,35.9137609 75.3325125,35.9137609 C75.2029982,35.9137609 75.1232971,35.8191158 75.0934092,35.6298257 C75.0635213,35.4405355 75.0610306,35.2238481 75.0859372,34.9797634 C75.1108438,34.7356787 75.1482037,34.491594 75.1980169,34.2475093 C75.2478301,34.0034247 75.2826993,33.8315691 75.3026246,33.7319427 C75.4421016,33.1441469 75.5840692,32.5638232 75.7285275,31.9909714 C75.8729858,31.4181196 76.024916,30.8377958 76.1843183,30.25 C76.2142062,30.140411 76.2416035,30.0756538 76.2665101,30.0557285 C76.2914167,30.0358032 76.3586645,30.0208593 76.4682535,30.0108966 C76.537992,30.0108966 76.6276558,30.0034247 76.7372448,29.9884807 C76.8468338,29.9735367 76.9539322,29.9585928 77.0585399,29.9436488 C77.1631477,29.9287049 77.2577927,29.9137609 77.3424752,29.8988169 C77.4271576,29.883873 77.4744802,29.8714197 77.4844428,29.861457 C77.6637703,29.8016812 77.7434715,29.6771482 77.7235462,29.487858 C77.7036209,29.3085305 77.5940319,29.2089041 77.394779,29.1889788 C77.3848164,29.1889788 77.3499472,29.1864882 77.2901713,29.1815068 C77.2303955,29.1765255 77.160657,29.1740349 77.0809559,29.1740349 L77.0809559,29.1740349 L76.6326371,29.1740349 C76.5429733,29.1740349 76.4906695,29.1665629 76.4757255,29.1516189 C76.4607815,29.136675 76.4632722,29.0893524 76.4831975,29.0096513 C76.4931601,28.9399128 76.5031228,28.8751557 76.5130854,28.8153798 C76.523048,28.755604 76.537992,28.6908468 76.5579173,28.6211083 C76.5778426,28.4517435 76.6027492,28.2823786 76.6326371,28.1130137 C76.662525,27.9436488 76.6675063,27.7742839 76.647581,27.6049191 C76.6376184,27.4654421 76.5952772,27.3409091 76.5205574,27.23132 C76.4458376,27.121731 76.3287766,27.0669365 76.1693743,27.0669365 C76.0697479,27.0669365 75.9850655,27.0943337 75.915327,27.1491283 C75.8455885,27.2039228 75.7808314,27.261208 75.7210555,27.3209838 C75.651317,27.4106476 75.5765972,27.5301993 75.4968961,27.6796389 C75.417195,27.8290785 75.3424752,27.9884807 75.2727367,28.1578456 C75.2029982,28.3272105 75.1382411,28.491594 75.0784652,28.6509963 C75.0186894,28.8103985 74.9688762,28.9399128 74.9290256,29.0395392 C74.8991377,29.129203 74.8742311,29.1815068 74.8543058,29.1964508 C74.8343805,29.2113948 74.7746047,29.2188667 74.6749783,29.2188667 L74.6749783,29.2188667 L73.658789,29.2188667 C73.3698724,29.238792 73.2154515,29.363325 73.1955262,29.5924658 C73.1855636,29.7020548 73.2129609,29.7966999 73.277718,29.876401 C73.3424752,29.9561021 73.4396109,30.0108966 73.5691253,30.0407846 C73.5751028,30.0407846 73.5954266,30.0416812 73.6300966,30.0434745 L73.7185649,30.0482565 C73.8082286,30.0532379 73.9103457,30.0582192 74.024916,30.0632005 C74.1394864,30.0681818 74.2440941,30.0731631 74.3387392,30.0781445 C74.4333843,30.0831258 74.4956508,30.0905978 74.5255387,30.1005604 C74.5355013,30.110523 74.5205574,30.1902242 74.4807068,30.3396638 C74.4408563,30.4891034 74.3885524,30.6783935 74.3237952,30.9075342 C74.2590381,31.136675 74.1868089,31.393213 74.1071078,31.6771482 C74.0274067,31.9610834 73.9501962,32.235056 73.8754764,32.499066 C73.8007566,32.763076 73.7359995,33.0071606 73.681205,33.23132 C73.6264104,33.4554795 73.5890505,33.627335 73.5691253,33.7468867 C73.5193121,34.0656912 73.4794615,34.3795143 73.4495736,34.6883562 C73.4196856,34.997198 73.4147043,35.3110212 73.4346296,35.6298257 C73.4545549,36.008406 73.5691253,36.3197385 73.7783407,36.5638232 C73.9875561,36.8079078 74.296398,36.9299502 74.7048662,36.9299502 Z M80.6915119,36.7805106 C80.9804284,36.7805106 81.269345,36.6783935 81.5582615,36.4741594 C81.8471781,36.2699253 82.1186601,36.0233499 82.3727074,35.7344334 C82.6267547,35.4455168 82.8558954,35.1466376 83.0601295,34.8377958 C83.2643637,34.5289539 83.4262566,34.264944 83.5458082,34.0457659 C83.6255094,33.9062889 83.6454347,33.7842466 83.6055841,33.6796389 C83.5657335,33.5750311 83.5009764,33.5227273 83.4113126,33.5227273 C83.2917609,33.5227273 83.1771906,33.5974471 83.0676015,33.7468867 C82.997863,33.8465131 82.880802,33.9959527 82.7164185,34.1952055 C82.5520349,34.3944583 82.3776887,34.5912204 82.1933799,34.7854919 C82.009071,34.9797634 81.8322342,35.1516189 81.6628693,35.3010585 C81.4935044,35.4504981 81.3639901,35.5252179 81.2743263,35.5252179 C81.1946252,35.5252179 81.1597559,35.4330635 81.1697186,35.2487547 C81.1796812,35.0644458 81.2120598,34.8452677 81.2668543,34.5912204 C81.3216488,34.3371731 81.378934,34.0806351 81.4387099,33.8216065 C81.4984857,33.5625778 81.5383363,33.3583437 81.5582615,33.2089041 C81.5781868,33.0694271 81.5881495,32.9249689 81.5881495,32.7755293 C81.5881495,32.6260897 81.5732055,32.4816314 81.5433176,32.3421544 C81.4935044,32.1429016 81.3988593,31.9760274 81.2593823,31.8415318 C81.1199054,31.7070361 80.9405779,31.6397883 80.7213998,31.6397883 C80.5819228,31.6397883 80.4474272,31.6896015 80.3179129,31.7892279 C80.2282491,31.8490037 80.1136787,31.9710461 79.9742018,32.1553549 C79.8347248,32.3396638 79.6952479,32.5314446 79.5557709,32.7306974 C79.386406,32.9698007 79.2170411,33.2238481 79.0476762,33.4928394 C79.0476762,33.4729141 79.0601295,33.3807597 79.0850361,33.2163761 C79.1099427,33.0519925 79.1423213,32.857721 79.1821719,32.6335616 C79.2220224,32.4094022 79.2643637,32.1777709 79.3091955,31.9386675 C79.3540274,31.6995641 79.3913873,31.49533 79.4212752,31.3259651 C79.4511632,31.1765255 79.495995,30.9698007 79.5557709,30.7057908 C79.6155467,30.4417808 79.6753226,30.1578456 79.7350984,29.8539851 C79.7948743,29.5501245 79.8446875,29.2412827 79.884538,28.9274595 C79.9243886,28.6136364 79.9418232,28.3272105 79.9368419,28.0681818 C79.9318606,27.8091532 79.8945007,27.5999377 79.8247622,27.4405355 C79.7550237,27.2811333 79.635472,27.2014321 79.4661071,27.2014321 C79.3166675,27.2014321 79.1647373,27.3284558 79.0103163,27.5825031 C78.8558954,27.8365504 78.7089465,28.1678082 78.5694695,28.5762765 C78.4299926,28.9847447 78.2954969,29.4405355 78.1659826,29.9436488 C78.0364683,30.4467621 77.9194073,30.9473848 77.8147995,31.4455168 C77.7101918,31.9436488 77.620528,32.4094022 77.5458082,32.8427771 C77.4710884,33.2761519 77.4138033,33.6323163 77.3739527,33.9112702 C77.3141769,34.3097758 77.2892703,34.6833748 77.2992329,35.0320672 C77.3091955,35.1416563 77.3341021,35.2736613 77.3739527,35.4280822 C77.4138033,35.5825031 77.4710884,35.7319427 77.5458082,35.876401 C77.620528,36.0208593 77.7126825,36.1429016 77.8222715,36.242528 C77.9318606,36.3421544 78.0514122,36.3919676 78.1809266,36.3919676 C78.3104409,36.3919676 78.4449365,36.3371731 78.5844135,36.2275841 C78.6840399,36.1379203 78.7986102,35.9785181 78.9281246,35.7493773 C79.0576389,35.5202366 79.1921345,35.2711706 79.3316115,35.0021793 C79.4710884,34.733188 79.6030934,34.4716687 79.7276264,34.2176214 C79.8521594,33.9635741 79.9542765,33.7717933 80.0339776,33.642279 C80.0339776,33.642279 80.0215243,33.7169988 79.9966177,33.8664384 C79.9717111,34.015878 79.9418232,34.1976961 79.906954,34.4118929 C79.8720847,34.6260897 79.8397061,34.8502491 79.8098182,35.0843711 C79.7799303,35.3184932 79.7699677,35.5202366 79.7799303,35.6896015 C79.7998556,35.9685554 79.8820474,36.2201121 80.0265056,36.4442715 C80.1709639,36.6684309 80.3926327,36.7805106 80.6915119,36.7805106 Z M83.8238611,41.2338107 C84.2323294,41.2338107 84.5860031,41.114259 84.8848823,40.8751557 C85.1837615,40.6360523 85.4427901,40.3396638 85.6619682,39.98599 C85.8811463,39.6323163 86.0579832,39.253736 86.1924788,38.8502491 C86.3269744,38.4467621 86.4340728,38.0756538 86.5137739,37.736924 C86.5436619,37.6372976 86.5984564,37.5825031 86.6781575,37.5725405 C86.8176345,37.5526152 86.9122795,37.4828767 86.9620927,37.363325 C87.0119059,37.2437733 87.0019433,37.1192403 86.9322048,36.989726 C86.9023169,36.9199875 86.8674477,36.8751557 86.8275971,36.8552304 C86.747896,36.8054172 86.7229894,36.7257161 86.7528773,36.616127 C86.8624663,35.9685554 86.9571114,35.3110212 87.0368125,34.6435243 C87.1165137,33.9760274 87.1663269,33.3135118 87.1862521,32.6559776 C87.1962148,32.5364259 87.1962148,32.4143836 87.1862521,32.2898506 C87.1762895,32.1653176 87.1464016,32.0482565 87.0965884,31.9386675 C87.0069246,31.6896015 86.8425411,31.5650685 86.6034377,31.5650685 C86.5137739,31.5650685 86.4365635,31.5924658 86.3718063,31.6472603 C86.3070492,31.7020548 86.2522546,31.766812 86.2074228,31.8415318 C86.1625909,31.9162516 86.1227403,31.9959527 86.0878711,32.0806351 C86.0530018,32.1653176 86.0256046,32.242528 86.0056793,32.3122665 C85.9160155,32.5812578 85.8213705,32.8502491 85.721744,33.1192403 C85.6221176,33.3882316 85.502566,33.6522416 85.363089,33.9112702 C85.3132758,34.000934 85.2485186,34.110523 85.1688175,34.2400374 C85.0891164,34.3695517 85.004434,34.4940847 84.9147702,34.6136364 C84.8251064,34.733188 84.7379333,34.8353051 84.6532509,34.9199875 C84.5685685,35.00467 84.5013206,35.0470112 84.4515074,35.0470112 C84.3917316,35.0470112 84.3693157,34.9399128 84.3842596,34.7257161 C84.3992036,34.5115193 84.4315822,34.2624533 84.4813954,33.9785181 C84.5312086,33.6945828 84.5860031,33.4156289 84.6457789,33.1416563 C84.7055548,32.8676837 84.7454053,32.6659402 84.7653306,32.5364259 C84.7752932,32.4467621 84.7802746,32.3496264 84.7802746,32.2450187 C84.7802746,32.140411 84.7678213,32.0358032 84.7429147,31.9311955 C84.7180081,31.8265878 84.6756668,31.7319427 84.615891,31.6472603 C84.5561152,31.5625778 84.476414,31.5052927 84.3767876,31.4754047 C84.3170118,31.4554795 84.2721799,31.4455168 84.242292,31.4455168 C84.0430392,31.4455168 83.8662023,31.5600872 83.7117814,31.7892279 C83.5573605,32.0183686 83.4278462,32.2848692 83.3232384,32.5887298 C83.2186307,32.8925903 83.1364389,33.1939601 83.0766631,33.4928394 C83.0168873,33.7917186 82.982018,34.0108966 82.9720554,34.1503736 C82.9521301,34.3097758 82.9471488,34.4816314 82.9571114,34.6659402 C82.9670741,34.8502491 82.9919807,35.0345579 83.0318312,35.2188667 C83.0716818,35.4031756 83.1314576,35.5775218 83.2111587,35.7419054 C83.2908599,35.9062889 83.3954676,36.0432752 83.5249819,36.1528643 C83.7242347,36.3222291 83.9284688,36.4069116 84.1376843,36.4069116 C84.2871239,36.4069116 84.4390541,36.3570984 84.5934751,36.257472 C84.747896,36.1578456 84.8948449,36.0358032 85.0343219,35.891345 C85.1737988,35.7468867 85.2983318,35.5949564 85.4079209,35.4355542 C85.5175099,35.2761519 85.6071737,35.136675 85.6769122,35.0171233 C85.6470242,35.246264 85.6171363,35.4704234 85.5872484,35.6896015 C85.5573605,35.8788917 85.5274726,36.0756538 85.4975846,36.2798879 C85.4676967,36.484122 85.4378088,36.6609589 85.4079209,36.8103985 C85.3979582,36.8900996 85.3531264,36.9399128 85.2734252,36.9598381 C85.0243592,37.0395392 84.7777839,37.1267123 84.5336992,37.2213574 C84.2896145,37.3160025 84.0530018,37.4280822 83.8238611,37.5575965 C83.5947204,37.6871108 83.3830143,37.8365504 83.1887428,38.0059153 C82.9944713,38.1752802 82.8275971,38.374533 82.6881201,38.6036737 C82.4390541,39.0021793 82.3444091,39.4305729 82.4041849,39.8888543 C82.4241102,40.0482565 82.4714327,40.2076588 82.5461525,40.367061 C82.6208723,40.5264633 82.7204987,40.6709215 82.8450317,40.8004359 C82.9695647,40.9299502 83.114023,41.0345579 83.2784066,41.114259 C83.4427901,41.1939601 83.6246083,41.2338107 83.8238611,41.2338107 Z M83.6445336,40.0382939 C83.4751687,40.0382939 83.3904863,39.8888543 83.3904863,39.5899751 C83.3904863,39.4504981 83.4378088,39.3135118 83.5324539,39.1790162 C83.627099,39.0445205 83.7242347,38.9324408 83.8238611,38.8427771 C83.9135249,38.763076 84.0256046,38.6833748 84.1601002,38.6036737 C84.2945959,38.5239726 84.4315822,38.4442715 84.5710591,38.3645704 C84.7304614,38.2749066 84.8948449,38.1902242 85.0642098,38.110523 C84.9845087,38.3097758 84.8998262,38.5040473 84.8101625,38.6933375 C84.740424,38.8627024 84.6607229,39.0295766 84.5710591,39.1939601 C84.4813954,39.3583437 84.3867503,39.49533 84.2871239,39.6049191 C84.0480205,39.8938356 83.8338238,40.0382939 83.6445336,40.0382939 Z M92.5094812,36.9299502 C92.8880615,36.9299502 93.2392445,36.8228518 93.5630303,36.608655 C93.8868161,36.3944583 94.1832047,36.1304483 94.452196,35.8166252 C94.7211873,35.502802 94.9602906,35.1640722 95.1695061,34.8004359 C95.3787215,34.4367995 95.5530677,34.1055417 95.6925447,33.8066625 C95.7423579,33.7070361 95.7323952,33.619863 95.6626567,33.5451432 C95.5929183,33.4704234 95.5082358,33.4330635 95.4086094,33.4330635 C95.2990204,33.4330635 95.2143379,33.4828767 95.1545621,33.5825031 C95.1047489,33.6622042 94.9976505,33.8290785 94.833267,34.0831258 C94.6688834,34.3371731 94.4820839,34.5986924 94.2728685,34.8676837 C94.063653,35.136675 93.8569282,35.378269 93.6526941,35.5924658 C93.44846,35.8066625 93.2766044,35.9137609 93.1371275,35.9137609 C93.0076132,35.9137609 92.927912,35.8191158 92.8980241,35.6298257 C92.8681362,35.4405355 92.8656455,35.2238481 92.8905521,34.9797634 C92.9154587,34.7356787 92.9528186,34.491594 93.0026318,34.2475093 C93.052445,34.0034247 93.0873143,33.8315691 93.1072396,33.7319427 C93.2467165,33.1441469 93.3886841,32.5638232 93.5331424,31.9909714 C93.6776007,31.4181196 93.829531,30.8377958 93.9889332,30.25 C94.0188211,30.140411 94.0462184,30.0756538 94.071125,30.0557285 C94.0960316,30.0358032 94.1632794,30.0208593 94.2728685,30.0108966 C94.3426069,30.0108966 94.4322707,30.0034247 94.5418597,29.9884807 C94.6514488,29.9735367 94.7585472,29.9585928 94.8631549,29.9436488 C94.9677626,29.9287049 95.0624077,29.9137609 95.1470901,29.8988169 C95.2317726,29.883873 95.2790951,29.8714197 95.2890577,29.861457 C95.4683853,29.8016812 95.5480864,29.6771482 95.5281611,29.487858 C95.5082358,29.3085305 95.3986468,29.2089041 95.199394,29.1889788 C95.1894313,29.1889788 95.1545621,29.1864882 95.0947863,29.1815068 C95.0350104,29.1765255 94.9652719,29.1740349 94.8855708,29.1740349 L94.8855708,29.1740349 L94.437252,29.1740349 C94.3475883,29.1740349 94.2952844,29.1665629 94.2803404,29.1516189 C94.2653965,29.136675 94.2678871,29.0893524 94.2878124,29.0096513 C94.2977751,28.9399128 94.3077377,28.8751557 94.3177003,28.8153798 C94.327663,28.755604 94.3426069,28.6908468 94.3625322,28.6211083 C94.3824575,28.4517435 94.4073641,28.2823786 94.437252,28.1130137 C94.4671399,27.9436488 94.4721213,27.7742839 94.452196,27.6049191 C94.4422333,27.4654421 94.3998921,27.3409091 94.3251723,27.23132 C94.2504525,27.121731 94.1333915,27.0669365 93.9739892,27.0669365 C93.8743628,27.0669365 93.7896804,27.0943337 93.7199419,27.1491283 C93.6502034,27.2039228 93.5854463,27.261208 93.5256704,27.3209838 C93.455932,27.4106476 93.3812122,27.5301993 93.301511,27.6796389 C93.2218099,27.8290785 93.1470901,27.9884807 93.0773516,28.1578456 C93.0076132,28.3272105 92.942856,28.491594 92.8830802,28.6509963 C92.8233043,28.8103985 92.7734911,28.9399128 92.7336406,29.0395392 C92.7037526,29.129203 92.678846,29.1815068 92.6589208,29.1964508 C92.6389955,29.2113948 92.5792196,29.2188667 92.4795932,29.2188667 L92.4795932,29.2188667 L91.4634039,29.2188667 C91.1744874,29.238792 91.0200665,29.363325 91.0001412,29.5924658 C90.9901785,29.7020548 91.0175758,29.7966999 91.082333,29.876401 C91.1470901,29.9561021 91.2442259,30.0108966 91.3737402,30.0407846 C91.3837028,30.0407846 91.433516,30.0432752 91.5231798,30.0482565 C91.6128435,30.0532379 91.7149606,30.0582192 91.829531,30.0632005 C91.9441013,30.0681818 92.0487091,30.0731631 92.1433541,30.0781445 C92.2379992,30.0831258 92.3002657,30.0905978 92.3301536,30.1005604 C92.3401163,30.110523 92.3251723,30.1902242 92.2853218,30.3396638 C92.2454712,30.4891034 92.1931673,30.6783935 92.1284102,30.9075342 C92.063653,31.136675 91.9914239,31.393213 91.9117227,31.6771482 C91.8320216,31.9610834 91.7548112,32.235056 91.6800914,32.499066 C91.6053716,32.763076 91.5406144,33.0071606 91.4858199,33.23132 C91.4310254,33.4554795 91.3936655,33.627335 91.3737402,33.7468867 C91.323927,34.0656912 91.2840764,34.3795143 91.2541885,34.6883562 C91.2243006,34.997198 91.2193193,35.3110212 91.2392445,35.6298257 C91.2591698,36.008406 91.3737402,36.3197385 91.5829556,36.5638232 C91.7921711,36.8079078 92.1010129,36.9299502 92.5094812,36.9299502 Z M99.183549,36.9598381 C99.4724655,36.9598381 99.7464381,36.8701743 100.005467,36.6908468 C100.403972,36.4218555 100.765118,36.1304483 101.088904,35.8166252 C101.41269,35.502802 101.691644,35.2064134 101.925766,34.9274595 C102.159888,34.6485056 102.344197,34.4094022 102.478692,34.2101494 C102.613188,34.0108966 102.685417,33.891345 102.69538,33.8514944 C102.745193,33.6721669 102.710324,33.5426526 102.590772,33.4629514 C102.511071,33.4231009 102.446314,33.4031756 102.3965,33.4031756 C102.286911,33.4031756 102.172341,33.4579701 102.052789,33.5675592 C102.032864,33.5974471 101.913312,33.7194894 101.694134,33.9336862 C101.474956,34.1478829 101.230872,34.382005 100.96188,34.6360523 C100.692889,34.8900996 100.43386,35.1192403 100.184794,35.3234745 C99.9357283,35.5277086 99.7663634,35.6298257 99.6766996,35.6298257 C99.5870359,35.6298257 99.5397133,35.5800125 99.534732,35.4803861 C99.5297507,35.3807597 99.542204,35.2562267 99.5720919,35.106787 C99.6019798,34.9573474 99.6443211,34.7979452 99.6991156,34.6285803 C99.7539101,34.4592154 99.8012326,34.3097758 99.8410832,34.1802615 C99.9207843,33.9112702 99.9955041,33.6447696 100.065243,33.3807597 C100.134981,33.1167497 100.194757,32.8452677 100.24457,32.5663138 C100.264495,32.4467621 100.276949,32.3297011 100.28193,32.2151308 C100.286911,32.1005604 100.274458,31.9834994 100.24457,31.8639477 C100.194757,31.6846202 100.115056,31.5451432 100.005467,31.4455168 C99.8958777,31.3458904 99.7663634,31.2960772 99.6169238,31.2960772 C99.4973721,31.2960772 99.3778204,31.3259651 99.2582688,31.385741 C99.1287544,31.4455168 99.0216561,31.5277086 98.9369736,31.6323163 C98.8522912,31.736924 98.7825527,31.8365504 98.7277582,31.9311955 C98.6729637,32.0258406 98.6331131,32.110523 98.6082065,32.1852428 C98.5832999,32.2599626 98.560884,32.2973225 98.5409587,32.2973225 C98.530996,32.2873599 98.4986175,32.2450187 98.4438229,32.1702989 C98.3890284,32.0955791 98.311818,32.0133873 98.2121916,31.9237235 C98.1125651,31.8340598 97.9905228,31.7543587 97.8460645,31.6846202 C97.7016062,31.6148817 97.5297507,31.5800125 97.3304979,31.5800125 C97.0216561,31.5800125 96.7377208,31.6572229 96.4786922,31.8116438 C96.2196635,31.9660648 95.9905228,32.1628269 95.79127,32.4019303 C95.5920172,32.6410336 95.425143,32.9050436 95.2906473,33.1939601 C95.1561517,33.4828767 95.0540346,33.7618306 94.9842962,34.0308219 C94.904595,34.3097758 94.8796884,34.5937111 94.9095764,34.8826276 C94.919539,35.0619552 94.9544082,35.2412827 95.0141841,35.4206102 C95.0739599,35.5999377 95.1586424,35.7618306 95.2682314,35.9062889 C95.3778204,36.0507472 95.5098254,36.1653176 95.6642463,36.25 C95.8186673,36.3346824 96.0004854,36.3770237 96.2097009,36.3770237 C96.5882812,36.3770237 96.9170483,36.2624533 97.1960023,36.0333126 C97.4749562,35.8041719 97.7190409,35.5501245 97.9282563,35.2711706 C97.9382189,35.4604608 97.9656162,35.6572229 98.0104481,35.861457 C98.05528,36.0656912 98.1250184,36.2475093 98.2196635,36.4069116 C98.3143086,36.5663138 98.4413323,36.6983188 98.6007345,36.8029265 C98.7601368,36.9075342 98.9544082,36.9598381 99.183549,36.9598381 Z M96.4338603,35.1665629 C96.3541592,35.1665629 96.3093273,35.1018057 96.2993647,34.9722914 C96.289402,34.8427771 96.3068366,34.6883562 96.3516685,34.5090286 C96.3965004,34.3297011 96.4612576,34.140411 96.54594,33.9411582 C96.6306224,33.7419054 96.7277582,33.5675592 96.8373472,33.4181196 C97.0166747,33.1889788 97.1661143,33.0295766 97.285666,32.9399128 C97.4052177,32.8502491 97.5048441,32.8054172 97.5845452,32.8054172 C97.6044705,32.8054172 97.6343584,32.8153798 97.674209,32.8353051 C97.7339848,32.8950809 97.7713447,32.9772727 97.7862887,33.0818804 C97.8012326,33.1864882 97.8012326,33.2935866 97.7862887,33.4031756 C97.7713447,33.5127646 97.7489288,33.619863 97.7190409,33.7244707 C97.6891529,33.8290785 97.6493024,33.9062889 97.5994892,33.9561021 C97.5397133,34.0258406 97.4649935,34.1304483 97.3753298,34.2699253 C97.285666,34.4094022 97.1885303,34.5438979 97.0839226,34.6734122 C96.9793148,34.8029265 96.8697258,34.9174969 96.7551554,35.0171233 C96.6405851,35.1167497 96.5334867,35.1665629 96.4338603,35.1665629 Z M102.525114,37.2886052 C102.873806,37.2786426 103.187629,37.1864882 103.466583,37.012142 C103.745537,36.8377958 103.964715,36.6011831 104.124117,36.3023039 C104.203819,36.1528643 104.333333,36.0482565 104.51266,35.9884807 C104.731838,35.9087796 104.973432,35.8016812 105.237442,35.6671856 C105.501452,35.5326899 105.753009,35.3732877 105.992112,35.1889788 C106.231216,35.00467 106.447903,34.8029265 106.642175,34.5837484 C106.836446,34.3645704 106.973432,34.1354296 107.053134,33.8963263 C107.083021,33.8066625 107.085512,33.7194894 107.060606,33.634807 C107.035699,33.5501245 106.983395,33.487858 106.903694,33.4480075 C106.863843,33.4181196 106.81403,33.4031756 106.754254,33.4031756 C106.644665,33.4031756 106.545039,33.4579701 106.455375,33.5675592 C106.415525,33.627335 106.345786,33.7145081 106.24616,33.8290785 C106.146533,33.9436488 106.022,34.0731631 105.872561,34.2176214 C105.723121,34.3620797 105.541303,34.51401 105.327106,34.6734122 C105.112909,34.8328144 104.871315,34.982254 104.602324,35.121731 C104.582399,35.121731 104.569946,35.1242217 104.564964,35.129203 C104.559983,35.1341843 104.552511,35.136675 104.542548,35.136675 C104.502698,35.136675 104.477791,35.1192403 104.467828,35.0843711 C104.457866,35.0495019 104.452885,35.0071606 104.452885,34.9573474 C104.452885,34.6684309 104.405562,34.4094022 104.310917,34.1802615 C104.216272,33.9511208 104.126608,33.7419054 104.041926,33.5526152 C103.957243,33.363325 103.902449,33.1914695 103.877542,33.0370486 C103.852635,32.8826276 103.904939,32.74066 104.034454,32.6111457 C104.044416,32.5712951 104.084267,32.5513699 104.154005,32.5513699 C104.243669,32.5513699 104.318389,32.5862391 104.378165,32.6559776 L104.404317,32.6821295 C104.434205,32.7045455 104.4753,32.7157534 104.527604,32.7157534 C104.58738,32.7157534 104.652137,32.6983188 104.721876,32.6634496 C104.791614,32.6285803 104.85139,32.5712951 104.901203,32.491594 C105.030718,32.3023039 105.07804,32.1005604 105.043171,31.8863636 C105.008302,31.6721669 104.891241,31.4853674 104.691988,31.3259651 C104.442922,31.1267123 104.173931,31.0270859 103.885014,31.0270859 C103.645911,31.0270859 103.419261,31.0768991 103.205064,31.1765255 C102.990867,31.2761519 102.804068,31.4081569 102.644665,31.5725405 C102.485263,31.736924 102.355749,31.9262142 102.256122,32.140411 C102.156496,32.3546077 102.101701,32.5762765 102.091739,32.8054172 C102.081776,33.0345579 102.111664,33.2512453 102.181403,33.4554795 C102.251141,33.6597136 102.345786,33.8564757 102.465338,34.0457659 C102.535076,34.1553549 102.602324,34.257472 102.667081,34.3521171 C102.731838,34.4467621 102.799086,34.5488792 102.868825,34.6584682 C102.978414,34.8278331 103.053134,35.0021793 103.092984,35.1815068 C103.112909,35.2711706 103.1154,35.3259651 103.100456,35.3458904 C103.085512,35.3658157 103.028227,35.3807597 102.928601,35.3907223 C102.769198,35.3907223 102.614777,35.3832503 102.465338,35.3683064 C102.315898,35.3533624 102.166459,35.3209838 102.017019,35.2711706 C101.917393,35.2512453 101.837691,35.2412827 101.777916,35.2412827 C101.548775,35.2412827 101.364466,35.3234745 101.224989,35.487858 C101.085512,35.6522416 101.025736,35.8589664 101.045662,36.1080324 C101.085512,36.4866127 101.257368,36.7730386 101.561228,36.9673101 C101.865089,37.1615816 102.186384,37.26868 102.525114,37.2886052 Z M107.540402,36.9299502 C107.918982,36.9299502 108.270165,36.8228518 108.593951,36.608655 C108.917737,36.3944583 109.214125,36.1304483 109.483117,35.8166252 C109.752108,35.502802 109.991211,35.1640722 110.200427,34.8004359 C110.409642,34.4367995 110.583988,34.1055417 110.723465,33.8066625 C110.773279,33.7070361 110.763316,33.619863 110.693577,33.5451432 C110.623839,33.4704234 110.539157,33.4330635 110.43953,33.4330635 C110.329941,33.4330635 110.245259,33.4828767 110.185483,33.5825031 C110.13567,33.6622042 110.028571,33.8290785 109.864188,34.0831258 C109.699804,34.3371731 109.513005,34.5986924 109.303789,34.8676837 C109.094574,35.136675 108.887849,35.378269 108.683615,35.5924658 C108.479381,35.8066625 108.307525,35.9137609 108.168048,35.9137609 C108.038534,35.9137609 107.958833,35.8191158 107.928945,35.6298257 C107.899057,35.4405355 107.896566,35.2238481 107.921473,34.9797634 C107.946379,34.7356787 107.983739,34.491594 108.033553,34.2475093 C108.083366,34.0034247 108.118235,33.8315691 108.13816,33.7319427 C108.277637,33.1441469 108.419605,32.5638232 108.564063,31.9909714 C108.708521,31.4181196 108.860452,30.8377958 109.019854,30.25 C109.049742,30.140411 109.077139,30.0756538 109.102046,30.0557285 C109.126952,30.0358032 109.1942,30.0208593 109.303789,30.0108966 C109.373528,30.0108966 109.463191,30.0034247 109.57278,29.9884807 C109.68237,29.9735367 109.789468,29.9585928 109.894076,29.9436488 C109.998683,29.9287049 110.093328,29.9137609 110.178011,29.8988169 C110.262693,29.883873 110.310016,29.8714197 110.319978,29.861457 C110.499306,29.8016812 110.579007,29.6771482 110.559082,29.487858 C110.539157,29.3085305 110.429568,29.2089041 110.230315,29.1889788 C110.220352,29.1889788 110.185483,29.1864882 110.125707,29.1815068 C110.065931,29.1765255 109.996193,29.1740349 109.916492,29.1740349 L109.916492,29.1740349 L109.468173,29.1740349 C109.378509,29.1740349 109.326205,29.1665629 109.311261,29.1516189 C109.296317,29.136675 109.298808,29.0893524 109.318733,29.0096513 C109.328696,28.9399128 109.338658,28.8751557 109.348621,28.8153798 C109.358584,28.755604 109.373528,28.6908468 109.393453,28.6211083 C109.413378,28.4517435 109.438285,28.2823786 109.468173,28.1130137 C109.498061,27.9436488 109.503042,27.7742839 109.483117,27.6049191 C109.473154,27.4654421 109.430813,27.3409091 109.356093,27.23132 C109.281373,27.121731 109.164312,27.0669365 109.00491,27.0669365 C108.905284,27.0669365 108.820601,27.0943337 108.750863,27.1491283 C108.681124,27.2039228 108.616367,27.261208 108.556591,27.3209838 C108.486853,27.4106476 108.412133,27.5301993 108.332432,27.6796389 C108.252731,27.8290785 108.178011,27.9884807 108.108272,28.1578456 C108.038534,28.3272105 107.973777,28.491594 107.914001,28.6509963 C107.854225,28.8103985 107.804412,28.9399128 107.764561,29.0395392 C107.734673,29.129203 107.709767,29.1815068 107.689841,29.1964508 C107.669916,29.2113948 107.61014,29.2188667 107.510514,29.2188667 L107.510514,29.2188667 L106.494325,29.2188667 C106.205408,29.238792 106.050987,29.363325 106.031062,29.5924658 C106.021099,29.7020548 106.048497,29.7966999 106.113254,29.876401 C106.178011,29.9561021 106.275147,30.0108966 106.404661,30.0407846 C106.414624,30.0407846 106.464437,30.0432752 106.554101,30.0482565 C106.643764,30.0532379 106.745881,30.0582192 106.860452,30.0632005 C106.975022,30.0681818 107.07963,30.0731631 107.174275,30.0781445 C107.26892,30.0831258 107.331186,30.0905978 107.361074,30.1005604 C107.371037,30.110523 107.356093,30.1902242 107.316242,30.3396638 C107.276392,30.4891034 107.224088,30.6783935 107.159331,30.9075342 C107.094574,31.136675 107.022345,31.393213 106.942643,31.6771482 C106.862942,31.9610834 106.785732,32.235056 106.711012,32.499066 C106.636292,32.763076 106.571535,33.0071606 106.516741,33.23132 C106.461946,33.4554795 106.424586,33.627335 106.404661,33.7468867 C106.354848,34.0656912 106.314997,34.3795143 106.285109,34.6883562 C106.255221,34.997198 106.25024,35.3110212 106.270165,35.6298257 C106.290091,36.008406 106.404661,36.3197385 106.613876,36.5638232 C106.823092,36.8079078 107.131934,36.9299502 107.540402,36.9299502 Z M112.256811,36.7805106 C112.575615,36.7805106 112.896911,36.7082814 113.220696,36.5638232 C113.544482,36.4193649 113.853324,36.2375467 114.147222,36.0183686 C114.44112,35.7991905 114.715092,35.5625778 114.96914,35.3085305 C115.223187,35.0544832 115.444856,34.8153798 115.634146,34.5912204 C115.823436,34.367061 115.972876,34.1777709 116.082465,34.0233499 C116.192054,33.868929 116.246848,33.7867372 116.246848,33.7767746 C116.296661,33.5575965 116.231904,33.4181196 116.052577,33.3583437 C116.022689,33.3483811 115.98782,33.3433998 115.947969,33.3433998 C115.818455,33.3433998 115.713847,33.4081569 115.634146,33.5376712 C115.624183,33.5675592 115.554445,33.6572229 115.42493,33.8066625 C115.295416,33.9561021 115.123561,34.1354296 114.909364,34.3446451 C114.695167,34.5538605 114.446101,34.7705479 114.162166,34.9947073 C113.878231,35.2188667 113.576861,35.4156289 113.258056,35.5849938 C113.168392,35.634807 113.073747,35.6721669 112.974121,35.6970735 C112.874495,35.7219801 112.77985,35.7344334 112.690186,35.7344334 C112.411232,35.7344334 112.219451,35.6298257 112.114843,35.4206102 C112.010236,35.2113948 111.95295,34.982254 111.942988,34.733188 C111.942988,34.6734122 111.967894,34.6435243 112.017708,34.6435243 L112.017708,34.6435243 L112.062539,34.6435243 C112.162166,34.6634496 112.236886,34.6734122 112.286699,34.6734122 C112.505877,34.6734122 112.720074,34.623599 112.929289,34.5239726 C113.138505,34.4243462 113.332776,34.2973225 113.512104,34.1429016 C113.691431,33.9884807 113.853324,33.8166252 113.997782,33.627335 C114.142241,33.4380448 114.25432,33.253736 114.334021,33.0744085 C114.413722,32.8751557 114.471008,32.6709215 114.505877,32.4617061 C114.540746,32.2524907 114.538255,32.0382939 114.498405,31.8191158 C114.448592,31.4704234 114.301643,31.1889788 114.057558,30.9747821 C113.813473,30.7605853 113.517085,30.6534869 113.168392,30.6534869 C112.690186,30.6534869 112.264283,30.7605853 111.890684,30.9747821 C111.517085,31.1889788 111.19828,31.4654421 110.93427,31.8041719 C110.67026,32.1429016 110.463536,32.5264633 110.314096,32.9548568 C110.164656,33.3832503 110.074993,33.8116438 110.045105,34.2400374 C110.02518,34.5688045 110.057558,34.8851183 110.142241,35.1889788 C110.226923,35.4928394 110.378853,35.7742839 110.598031,36.0333126 C110.767396,36.242528 111.004009,36.4193649 111.307869,36.5638232 C111.61173,36.7082814 111.928044,36.7805106 112.256811,36.7805106 Z M112.182091,33.7767746 C112.082465,33.7767746 112.047595,33.7169988 112.077483,33.5974471 C112.107371,33.5077833 112.154694,33.385741 112.219451,33.23132 C112.284208,33.0768991 112.361419,32.9224782 112.451082,32.7680573 C112.540746,32.6136364 112.640373,32.4816314 112.749962,32.3720423 C112.859551,32.2624533 112.974121,32.2076588 113.093673,32.2076588 C113.163411,32.2076588 113.208243,32.242528 113.228168,32.3122665 C113.248094,32.382005 113.258056,32.4417808 113.258056,32.491594 C113.258056,32.6211083 113.225678,32.7605853 113.16092,32.9100249 C113.096163,33.0594645 113.016462,33.1989415 112.921817,33.3284558 C112.827172,33.4579701 112.715092,33.5650685 112.585578,33.6497509 C112.456064,33.7344334 112.321568,33.7767746 112.182091,33.7767746 Z" id="healthytaste"></path>
                <path d="M11.2756849,19.4691781 L16.6566781,4.73886986 C17.4143836,2.68407534 17.7226027,2.37585616 19.3792808,2.17037671 L19.3792808,0.924657534 L13.0993151,0.924657534 L13.0993151,2.17037671 C15.1412671,2.44006849 15.385274,2.78681507 14.7303082,4.70034247 L10.7619863,16.3099315 L6.75513699,4.6875 C6.10017123,2.78681507 6.35702055,2.44006849 8.3989726,2.17037671 L8.3989726,0.924657534 L1.42108547e-14,0.924657534 L1.42108547e-14,2.17037671 C1.60530822,2.37585616 1.97773973,2.68407534 2.70976027,4.67465753 L8.07791096,19.4691781 L11.2756849,19.4691781 Z M23.1180944,3.96832192 C24.2739163,3.96832192 25.1857314,3.13356164 25.1857314,1.97773973 C25.1857314,0.834760274 24.2739163,-5.61328761e-13 23.1180944,-5.61328761e-13 C21.975115,-5.61328761e-13 21.0504574,0.834760274 21.0504574,1.97773973 C21.0504574,3.13356164 21.9622725,3.96832192 23.1180944,3.96832192 Z M27.022204,19.4691781 L27.022204,18.2234589 C25.4297383,18.0565068 25.2114163,17.8638699 25.2114163,17.0291096 L25.2114163,6.24143836 L19.8047383,6.89640411 L19.8047383,8.0265411 L20.7807656,8.28339041 C21.4999437,8.46318493 21.6283684,8.65582192 21.6283684,9.375 L21.6283684,17.0291096 C21.6283684,17.8638699 21.397204,18.0565068 19.8047383,18.2234589 L19.8047383,19.4691781 L27.022204,19.4691781 Z M33.971634,19.7645548 C35.4356751,19.7645548 37.0152984,19.2123288 37.721634,18.5958904 L37.721634,17.3630137 C37.2593053,17.6327055 36.5658121,17.8510274 35.8594765,17.8510274 C34.5367025,17.8510274 33.6248875,17.1190068 33.6248875,14.9357877 L33.6248875,8.03938356 L37.5161546,8.10359589 L37.5161546,6.40839041 L33.6248875,6.49828767 L33.6248875,3.69863014 L32.7901272,3.69863014 L28.3594765,7.0890411 L28.3594765,8.10359589 L30.0803669,8.10359589 L30.0803669,15.5650685 C30.0803669,18.7243151 31.9682094,19.7645548 33.971634,19.7645548 Z M43.0785983,19.7645548 C45.0948654,19.7645548 46.7258586,18.8784247 47.509249,17.7611301 C47.8431531,18.9811644 49.0118175,19.6875 50.4758586,19.6875 C51.5417832,19.6875 52.4022285,19.3664384 52.9159271,19.0068493 L52.9159271,17.8381849 C52.7361326,17.9152397 52.5049682,17.9409247 52.2352764,17.9409247 C51.5032559,17.9409247 50.89966,17.5428082 50.89966,16.4383562 L50.89966,10.5436644 C50.89966,7.4614726 48.832023,6.1130137 45.4544545,6.1130137 C42.1154134,6.1130137 39.623975,7.48715753 39.623975,9.3364726 C39.623975,10.3125 40.3816805,10.9803082 41.4090778,10.9803082 C42.46216,10.9803082 43.2198654,10.2611301 43.2198654,9.32363014 C43.2198654,8.80993151 42.9887011,8.34760274 42.629112,8.05222603 C43.1299682,7.85958904 43.7335641,7.75684932 44.3885298,7.75684932 C46.186475,7.75684932 47.3808243,8.54023973 47.3808243,10.7363014 L47.3808243,11.609589 L44.4142148,12.2517123 C40.6256874,13.0607877 39.1744887,14.3964041 39.1744887,16.4640411 C39.1744887,18.364726 40.7797969,19.7645548 43.0785983,19.7645548 Z M44.9022285,17.8510274 C43.6436668,17.8510274 42.7190093,17.1190068 42.7190093,15.8604452 C42.7190093,14.6018836 43.5794545,13.869863 45.8654134,13.3690068 L47.3808243,13.0351027 L47.3808243,16.6695205 C46.8928106,17.3886986 45.9809956,17.8510274 44.9022285,17.8510274 Z M61.3422407,19.7645548 C63.6538845,19.7645548 65.5545694,18.9940068 66.5819667,17.8381849 L66.5819667,16.6053082 C65.8114188,17.2731164 64.5271722,17.6840753 63.3199804,17.6840753 C60.4047407,17.6840753 58.4655284,15.8732877 58.1829941,12.8938356 L66.864501,12.8938356 C66.9030284,12.6498288 66.9287133,12.2388699 66.9287133,11.827911 C66.9287133,8.30907534 64.8225489,6.12585616 61.1367612,6.12585616 C57.2454941,6.12585616 54.5100489,8.91267123 54.5100489,13.0607877 C54.5100489,17.2731164 57.5023434,19.7645548 61.3422407,19.7645548 Z M63.666727,11.4811644 L58.1573092,11.4811644 C58.3114188,8.98972603 59.4800831,7.76969178 61.1239188,7.76969178 C62.7549119,7.76969178 63.666727,9.04109589 63.666727,11.3527397 L63.666727,11.4811644 L63.666727,11.4811644 Z M81.315587,19.4691781 L81.315587,18.2234589 C79.4791144,18.005137 79.273635,17.7482877 79.2607925,16.4768836 L79.2607925,3.92979452 L85.0527446,19.4691781 L87.1717514,19.4691781 L88.3275733,15.9246575 L92.6940117,3.90410959 L92.950861,16.6952055 C92.9765459,17.8125 92.7453816,18.0308219 90.9217514,18.2234589 L90.9217514,19.4691781 L98.9482925,19.4691781 L98.9482925,18.2234589 C97.0219227,18.0308219 96.7907583,17.7868151 96.7650733,16.6309932 L96.4953816,3.76284247 C96.4696966,2.60702055 96.7393884,2.3630137 98.6657583,2.17037671 L98.6657583,0.924657534 L91.9363062,0.911815068 L87.3001761,14.8587329 L82.2145596,0.924657534 L75.5878473,0.924657534 L75.5878473,2.17037671 C77.3857925,2.37585616 77.6554843,2.69691781 77.6169569,4.05821918 L77.3344227,16.515411 C77.2958953,17.7611301 77.1032583,18.005137 75.3053131,18.2234589 L75.3053131,19.4691781 L81.315587,19.4691781 Z M104.510736,19.7645548 C106.527003,19.7645548 108.157997,18.8784247 108.941387,17.7611301 C109.275291,18.9811644 110.443955,19.6875 111.907997,19.6875 C112.973921,19.6875 113.834366,19.3664384 114.348065,19.0068493 L114.348065,17.8381849 C114.168271,17.9152397 113.937106,17.9409247 113.667414,17.9409247 C112.935394,17.9409247 112.331798,17.5428082 112.331798,16.4383562 L112.331798,10.5436644 C112.331798,7.4614726 110.264161,6.1130137 106.886592,6.1130137 C103.547551,6.1130137 101.056113,7.48715753 101.056113,9.3364726 C101.056113,10.3125 101.813818,10.9803082 102.841216,10.9803082 C103.894298,10.9803082 104.652003,10.2611301 104.652003,9.32363014 C104.652003,8.80993151 104.420839,8.34760274 104.06125,8.05222603 C104.562106,7.85958904 105.165702,7.75684932 105.820668,7.75684932 C107.618613,7.75684932 108.812962,8.54023973 108.812962,10.7363014 L108.812962,11.609589 L105.846353,12.2517123 C102.057825,13.0607877 100.606627,14.3964041 100.606627,16.4640411 C100.606627,18.364726 102.211935,19.7645548 104.510736,19.7645548 Z M106.334366,17.8510274 C105.075805,17.8510274 104.151147,17.1190068 104.151147,15.8604452 C104.151147,14.6018836 105.011592,13.869863 107.297551,13.3690068 L108.812962,13.0351027 L108.812962,16.6695205 C108.324949,17.3886986 107.413134,17.8510274 106.334366,17.8510274 Z M123.04407,19.4691781 L123.04407,18.2234589 C121.246125,18.0436644 121.014961,17.8638699 121.014961,16.8621575 L121.014961,10.2868151 C121.644242,9.60616438 123.211022,9.13099315 124.649379,9.13099315 C125.304344,9.13099315 125.946468,9.22089041 126.293214,9.3364726 C126.473009,9.06678082 126.575748,8.55308219 126.575748,8.05222603 C126.575748,7.03767123 126.100577,6.16438356 124.906228,6.16438356 C123.583454,6.16438356 122.376262,7.17893836 120.937906,9.38784247 L120.950748,6.24143836 L115.608283,6.89640411 L115.608283,8.0265411 L116.58431,8.28339041 C117.303488,8.46318493 117.431913,8.65582192 117.431913,9.375 L117.431913,17.0291096 C117.431913,17.8638699 117.200748,18.0565068 115.608283,18.2234589 L115.608283,19.4691781 L123.04407,19.4691781 Z M134.693843,19.4691781 L134.693843,18.2234589 C133.281172,18.0693493 133.101377,17.8895548 133.101377,17.1061644 L133.101377,13.1892123 L134.78374,13.1892123 L138.443843,19.4691781 L142.900179,19.4691781 L142.900179,18.3005137 C142.001206,18.0693493 141.384768,17.5684932 140.241788,15.5650685 L137.454973,10.8133562 L138.122781,10.2097603 C140.40874,8.18065068 141.038021,7.85958904 142.514905,7.65410959 L142.514905,6.40839041 L136.273466,6.40839041 L136.273466,7.65410959 C138.045726,7.85958904 138.199836,8.24486301 136.877062,9.55479452 L134.73237,11.7380137 L133.101377,11.7380137 L133.101377,0.256849315 L127.694699,0.924657534 L127.694699,2.05479452 L128.670726,2.29880137 C129.389905,2.49143836 129.518329,2.68407534 129.518329,3.41609589 L129.518329,17.0291096 C129.518329,17.8638699 129.287165,18.0565068 127.694699,18.2234589 L127.694699,19.4691781 L134.693843,19.4691781 Z M150.658684,19.7645548 C152.970328,19.7645548 154.871013,18.9940068 155.89841,17.8381849 L155.89841,16.6053082 C155.127862,17.2731164 153.843615,17.6840753 152.636424,17.6840753 C149.721184,17.6840753 147.781972,15.8732877 147.499437,12.8938356 L156.180944,12.8938356 C156.219472,12.6498288 156.245156,12.2388699 156.245156,11.827911 C156.245156,8.30907534 154.138992,6.12585616 150.453204,6.12585616 C146.561937,6.12585616 143.826492,8.91267123 143.826492,13.0607877 C143.826492,17.2731164 146.818787,19.7645548 150.658684,19.7645548 Z M152.98317,11.4811644 L147.473752,11.4811644 C147.627862,8.98972603 148.796526,7.76969178 150.440362,7.76969178 C152.071355,7.76969178 152.98317,9.04109589 152.98317,11.3527397 L152.98317,11.4811644 L152.98317,11.4811644 Z M163.6826,19.7645548 C165.146641,19.7645548 166.726265,19.2123288 167.4326,18.5958904 L167.4326,17.3630137 C166.970271,17.6327055 166.276778,17.8510274 165.570443,17.8510274 C164.247669,17.8510274 163.335854,17.1190068 163.335854,14.9357877 L163.335854,8.03938356 L167.227121,8.10359589 L167.227121,6.40839041 L163.335854,6.49828767 L163.335854,3.69863014 L162.501093,3.69863014 L158.070443,7.0890411 L158.070443,8.10359589 L159.791333,8.10359589 L159.791333,15.5650685 C159.791333,18.7243151 161.679176,19.7645548 163.6826,19.7645548 Z" id="VitaeMarket"></path>
            </g>
            <g id="Group-12" transform="translate(52.000000, 0.000000)">
                <path d="M65.8794521,32.9534247 C65.8794521,35.7589041 62.3726027,38.0657534 61.6821918,40.6575342 C60.9643836,43.3369863 62.8219178,47.0849315 61.4684932,49.4246575 C60.1150685,51.7643836 55.890411,52.0547945 53.9726027,53.9945205 C52.0547945,55.9342466 51.7808219,60.1150685 49.4027397,61.490411 C47.0246575,62.8657534 43.309589,60.9917808 40.6356164,61.7041096 C38.0493151,62.4 35.7369863,65.9013699 32.9315068,65.9013699 C30.1260274,65.9013699 27.8136986,62.4 25.2273973,61.7041096 C22.5479452,60.9917808 18.8,62.8493151 16.460274,61.490411 C14.1205479,60.1315068 13.8246575,55.9287671 11.890411,53.9945205 C9.95616438,52.060274 5.77534247,51.8027397 4.39452055,49.430137 C3.01369863,47.0575342 4.89863014,43.3369863 4.18082192,40.6630137 C3.47945205,38.0657534 -2.84217094e-14,35.7589041 -2.84217094e-14,32.9534247 C-2.84217094e-14,30.1479452 3.50684932,27.8356164 4.19726027,25.2438356 C4.91506849,22.5643836 3.05753425,18.8164384 4.4109589,16.4767123 C5.76438356,14.1369863 9.97808219,13.8410959 11.9068493,11.9123288 C13.8356164,9.98356164 14.0986301,5.79178082 16.4767123,4.41643836 C18.8547945,3.04109589 22.5424658,4.93150685 25.2054795,4.19726027 C27.8082192,3.50684932 30.1369863,-1.91846539e-13 32.9260274,-1.91846539e-13 C35.7150685,-1.91846539e-13 38.0438356,3.50684932 40.630137,4.19726027 C43.2876712,4.93150685 47.0575342,3.05205479 49.4082192,4.4109589 C51.7589041,5.76986301 52.0383562,9.97808219 53.9726027,11.9068493 C55.9068493,13.8356164 60.0931507,14.0986301 61.4684932,16.4712329 C62.8438356,18.8438356 60.9643836,22.5643836 61.6821918,25.2383562 C62.3726027,27.8356164 65.8794521,30.1369863 65.8794521,32.9534247 Z" id="Path" fill="#80BB01" fill-rule="nonzero"></path>
                <circle id="Oval" fill="#EDEDED" fill-rule="nonzero" transform="translate(32.927289, 32.952603) rotate(-45.000000) translate(-32.927289, -32.952603) " cx="32.9272891" cy="32.9526033" r="22.4383562"></circle>
                <path d="M32.9260274,58.3068499 C22.6683112,58.3090655 13.4195064,52.1313793 9.49302453,42.6549091 C5.56654266,33.1784389 7.73579461,22.2697936 14.9890955,15.0164927 C22.2423963,7.76319187 33.1510417,5.59393992 42.6275118,9.52042179 C52.103982,13.4469037 58.2816683,22.6957084 58.2794527,32.9534247 C58.2613397,46.9482252 46.9208279,58.288737 32.9260274,58.3068499 Z M32.9260274,8.64657534 C19.5017252,8.64657534 8.61917808,19.5291225 8.61917808,32.9534247 C8.61917808,46.3777269 19.5017252,57.260274 32.9260274,57.260274 C46.3503296,57.260274 57.2328767,46.3777269 57.2328767,32.9534247 C57.2207927,19.534131 46.345321,8.65865936 32.9260274,8.64657534 Z" id="Shape" fill="#EDEDED" fill-rule="nonzero"></path>
                <path d="M63.1945205,32.7232877 C63.1945205,33.5464189 62.5272408,34.2136986 61.7041096,34.2136986 C60.8809783,34.2136986 60.2136986,33.5464189 60.2136986,32.7232877 C60.2136986,31.9001564 60.8809783,31.2328767 61.7041096,31.2328767 C62.5272408,31.2328767 63.1945205,31.9001564 63.1945205,32.7232877 Z" id="Path" fill="#EDEDED" fill-rule="nonzero"></path>
                <path d="M5.63835616,32.7232877 C5.63835616,33.5464189 4.97107645,34.2136986 4.14794521,34.2136986 C3.32481396,34.2136986 2.65753425,33.5464189 2.65753425,32.7232877 C2.65753425,31.9001564 3.32481396,31.2328767 4.14794521,31.2328767 C4.97107645,31.2328767 5.63835616,31.9001564 5.63835616,32.7232877 Z" id="Path" fill="#EDEDED" fill-rule="nonzero"></path>
                <path d="M48.7671233,43.2236745 C48.7522218,43.2223484 46.1690728,42.9916076 43.0429897,42.2788307 C42.9548762,42.0030026 42.7397758,41.3260304 42.4773792,40.4932418 C42.5667884,39.9866729 42.6756344,39.1605148 42.7469026,37.912658 C42.8849038,35.4965101 42.4087025,31.962463 42.2830113,31.6747 C42.1573201,31.3869371 41.3720739,31.468492 41.0720995,35.5522062 C40.8505201,38.572391 41.6441889,40.194207 42.0724461,40.8340486 C42.2441377,41.376422 42.3899136,41.8385667 42.4883934,42.1482102 C41.8502189,41.99372 41.1945513,41.8186752 40.5382358,41.6217499 C40.4397561,41.2670191 40.1631058,40.2750989 40.0296399,39.8653351 C40.0069636,39.0915578 39.8922866,37.7230262 39.4653252,35.6251415 C38.7364457,32.0479962 36.7351045,29.5642174 36.6806815,30.0515579 C36.6262585,30.5395614 36.4403133,31.5898298 37.3285744,34.9634193 C37.9343543,37.2695012 38.9664476,39.0836012 39.5592696,40.001923 C39.6583972,40.3009578 39.8547088,40.9925171 39.9829916,41.4506834 C39.1025051,41.1688879 38.2278498,40.8459834 37.4004905,40.4779917 C37.4102089,40.290349 37.4296457,39.5934853 37.246292,38.8031318 C37.3227434,38.7348378 37.4089131,38.642011 37.4775898,38.5273037 C37.6382672,38.2627474 37.7270286,37.6215798 37.3195039,36.4910825 C36.9113314,35.3599222 35.5371506,34.9408757 34.8769478,35.576739 C34.2180407,36.2132653 34.3379009,37.5864382 34.8970324,38.4861947 C35.3116839,39.1552104 36.3068474,39.0822751 36.7901754,39.0013832 C36.901613,39.521213 36.9204019,39.987999 36.9184582,40.2552074 C36.1435783,39.8839004 35.4185862,39.4701583 34.7797638,39.0080137 C34.4227748,38.7500879 34.0631943,38.4722707 33.7010222,38.1772142 C33.6951911,37.7468959 33.6627965,37.0274886 33.539049,36.1449713 C33.3343148,34.6862652 32.4000533,27.6115403 32.0197401,27.6652472 C31.639427,27.7182911 31.0433656,28.9515608 31.5713983,32.1215945 C31.9523593,34.4051327 32.8872687,36.7682367 33.3809631,37.9119949 C32.1752344,36.8975311 30.9559,35.7033812 29.7942281,34.4475678 C30.0449626,33.5471483 30.7848563,30.6058662 30.5496712,28.0312499 C30.2684857,24.9480755 29.619297,24.0463299 29.4696338,23.745306 C29.3193226,23.4442821 28.7297401,25.5521125 29.0128693,29.0437246 C29.2208429,31.605743 29.5013805,33.4662564 29.6361422,34.2751753 C29.2558291,33.8607701 28.8819949,33.4403975 28.5172312,33.0173727 C28.2813982,32.7441968 28.0488047,32.4696949 27.8213943,32.196519 C27.9334797,31.2105662 28.1997637,28.2573493 27.6743226,26.1687473 C27.0355002,23.6272834 26.8061461,22.5942542 26.3701142,23.1392799 C25.9334344,23.6856316 26.2223946,27.1958091 26.7309905,29.3686182 C26.9784856,30.424191 27.2331075,31.2006205 27.4294191,31.7197873 C26.685638,30.8067699 25.9975758,29.9063503 25.3898523,29.0616269 C25.4254864,28.2003272 25.4449232,26.0427682 24.9052284,23.924992 C24.2106872,21.1965485 23.4183142,20.9532098 23.4889345,22.261404 C23.5595549,23.5689351 24.1225738,26.4160643 24.5359294,27.6413775 C24.5851693,27.785922 24.6331134,27.9211839 24.6817053,28.0478261 C24.1672784,27.2879728 23.7357817,26.5957504 23.4111874,26.0082897 C23.3269613,25.4831554 23.1623965,24.7166717 22.8442811,23.649164 C22.1115143,21.1985376 21.8776249,17.2003567 21.4590861,17.0040944 C21.0405473,16.8078321 20.1464552,18.2327228 20.873391,21.4014304 C21.350888,23.484728 22.3337415,25.2338493 22.9505356,26.1873127 C23.2854962,26.7999693 23.7364296,27.5266702 24.2767723,28.3249802 C23.359356,27.785922 21.4914808,26.6925554 20.4140349,26.0924968 C18.9459096,25.2762844 17.1337532,24.4832787 16.9918647,24.7378892 C16.8499762,24.9924997 19.451914,27.5180505 21.3917053,28.2546971 C22.8203091,28.7977337 24.0027136,28.7519833 24.5268589,28.6896568 C25.1274556,29.55825 25.8252363,30.4984524 26.5903978,31.4625246 C26.3584521,31.5984495 25.9898011,31.7854291 25.6671504,31.8212337 C25.6794604,31.4512528 25.6224458,30.2067112 24.3564631,29.6059895 C22.8591827,28.8965278 21.9216817,29.4846516 21.822554,29.9865792 C21.7234264,30.4891697 21.7156517,31.7482984 23.207749,32.4398577 C24.0966581,32.8516107 24.9337357,32.8529368 25.4151201,32.3171938 C25.947688,32.3735529 26.5897499,32.0400396 26.9026821,31.85306 C27.3030799,32.3490201 27.720323,32.8496215 28.1498759,33.3469077 C28.3461875,33.5749963 28.5457385,33.8024219 28.7472332,34.0285213 C28.3500748,34.1624571 27.7054214,34.3580563 27.3199252,34.3600454 C26.0519988,33.9409989 23.8835013,33.2222546 22.802816,32.8476324 C21.2193658,32.2999545 19.3022507,31.8358207 19.2044189,32.1116488 C19.107235,32.3881399 21.9683299,34.3368387 24.1277569,34.80694 C25.5492339,35.1159204 26.909809,34.9654085 27.6730268,34.8261684 C27.835,34.8003095 28.0079874,34.7618527 28.1783832,34.7180915 C28.2606656,34.697537 28.3047223,34.684276 28.3047223,34.684276 C28.6319083,34.5954276 28.9351221,34.4926551 29.1094053,34.4309916 C29.8629047,35.260465 30.6449114,36.0693838 31.4353408,36.8252588 C30.9831115,36.8922267 30.2769083,36.9552163 29.6413254,36.8391829 C29.4987889,35.8465996 28.9616857,35.2664324 27.6600689,35.2564867 C26.2573808,35.2452149 25.2570342,35.8439474 25.2473158,36.7476822 C25.2369495,37.651417 26.4426782,38.5425538 28.0766641,38.256117 C29.2823927,38.0452676 29.5907897,37.6474387 29.6581706,37.3477409 C30.5613333,37.486981 31.5467783,37.321882 31.8901616,37.252925 C32.5678575,37.8808317 33.2487929,38.4643141 33.9219536,38.9841439 C33.4489918,38.9867961 32.8257189,38.9655786 32.3378555,38.8634692 L32.335264,38.8773932 C31.5655672,38.6977071 29.9341729,38.5160319 26.7083143,38.8276646 C21.5491432,39.3269399 22.8650137,38.6798048 22.8196612,39.0623836 C22.7743087,39.4449625 26.0636609,41.1569531 28.7083596,40.8413421 C30.5684601,40.6192209 31.9083026,39.8447806 32.540646,39.4045165 C33.3304274,39.5165717 34.2802384,39.480104 34.567255,39.465517 C35.0441041,39.8043346 35.5643621,40.1172934 36.1163668,40.4070455 C35.1289781,40.5595466 32.6015479,41.0216912 30.3663175,42.0414594 C27.5162367,43.3423601 26.7698641,44.1890727 27.0471623,44.7161961 C27.3244604,45.2433194 32.2393758,43.8283745 33.9251931,42.6461594 C35.1911758,41.7590009 36.0321408,40.90831 36.3716366,40.5389921 C38.0153409,41.3678024 39.9052444,41.994383 41.704443,42.4631581 C40.4060656,42.4578537 38.2421034,42.5195172 36.4649332,42.9160201 C33.7282337,43.5260245 33.0583124,44.2275295 33.2371309,44.825599 C33.4159493,45.4243316 35.7937162,45.8878023 38.6042755,44.9270454 C40.778604,44.1837683 42.1307565,43.1321738 42.6322256,42.6932359 C45.9338877,43.4729806 48.7088129,43.7209607 48.7237145,43.7222868 L48.7671233,43.2236745" id="Fill-6" fill="#1F4934"></path>
            </g>
        </g>
    </g>
</svg>