<?xml version="1.0" encoding="UTF-8"?>
<svg width="111px" height="111px" viewBox="0 0 111 111" version="1.1" xmlns="http://www.w3.org/2000/svg" xmlns:xlink="http://www.w3.org/1999/xlink">
    <title>1007</title>
    <g id="makers" stroke="none" stroke-width="1" fill="none" fill-rule="evenodd">
        <g id="1007">
            <circle id="Oval" fill="#D8D8D8" cx="55.5" cy="55.5" r="55.5"></circle>
            <g id="Group-16" transform="translate(34.000000, 20.000000)">
                <path d="M2,12.8006631 L4.68404588,11.1578947 C4.78336809,11.3195193 4.88972888,11.4886034 5,11.6576875 L2.54744526,13.1578947 L2,12.8006631 Z M38,34.1646168 C37.7700115,34.1375168 37.548972,34.1044887 37.3485152,34.0697669 L37.3485152,34.4237604 L18.9995526,44.4490608 L0.650589925,34.4237604 L0.650589925,14.370619 L2.11106139,13.5720164 C1.91507901,13.4255071 1.73073028,13.2823853 1.57412335,13.1578947 L0.163766102,13.9285505 L0,14.0183192 L0,34.7777539 L0.161976309,34.8666758 L9.49932883,39.9674009 L18.8366813,45.0698198 L18.9995526,45.1578947 L19.1624238,45.0698198 L28.4988814,39.9674009 L37.8371288,34.8666758 L38,34.7777539 L38,34.1646168 Z M19.1093919,3.24744188 L28.4721337,8.38488965 L28.4721337,8.38574248 L37.8348754,13.5223374 L38,13.6127374 L38,33.1578947 C37.7828253,33.1152532 37.5602661,33.0734646 37.3466811,33.0333816 L37.3466811,13.9675147 L28.1481665,8.92046687 L28.1463717,8.92046687 L18.9460622,3.87171343 L9.74575275,8.92046687 L9.74395791,8.92046687 L9.17948321,9.23004415 L9,8.61600657 L9.41999072,8.38574248 L9.4190933,8.38488965 L18.7827325,3.24744188 L18.9460622,3.15789474 L19.1093919,3.24744188 L19.1093919,3.24744188 Z" id="Fill-5" fill="#A5B363"></path>
                <path d="M42,34.6038553 C41.9803068,34.6021063 38.5665419,34.2977877 34.4352613,33.357723 C34.3188149,32.9939399 34.0345485,32.101097 33.6877778,31.0027517 C33.8059367,30.3346499 33.9497824,29.2450494 34.043967,27.5992803 C34.2263427,24.4126797 33.5970181,19.7517079 33.4309106,19.3721841 C33.2648032,18.9926603 32.2270598,19.1002212 31.8306281,24.4861359 C31.5377995,28.4693867 32.5866738,30.6083618 33.1526378,31.4522338 C33.3795372,32.1675574 33.5721876,32.7770691 33.7023336,33.1854507 C32.858953,32.9816972 31.9924544,32.7508348 31.1250995,32.4911146 C30.9949535,32.0232684 30.6293458,30.7150482 30.4529637,30.1746203 C30.4229959,29.1541036 30.2714442,27.3491794 29.7071926,24.5823286 C28.7439407,19.8645156 26.0990649,16.5887181 26.0271421,17.23146 C25.9552193,17.8750764 25.709483,19.2602508 26.883366,23.7095988 C27.6839354,26.7510359 29.0479002,29.1436098 29.8313451,30.3547629 C29.9623474,30.7491529 30.2217832,31.6612342 30.3913156,32.2654991 C29.2277072,31.8938456 28.0718049,31.4679744 26.9784069,30.9826387 C26.9912503,30.7351612 27.016937,29.816084 26.7746256,28.7737053 C26.87566,28.683634 26.9895378,28.561207 27.0802975,28.4099222 C27.2926411,28.0610051 27.4099438,27.2153842 26.8713789,25.7243979 C26.3319578,24.2325371 24.5159068,23.6798665 23.6434146,24.5184916 C22.7726348,25.3579912 22.9310362,27.1690368 23.6699575,28.3557045 C24.2179409,29.2380535 25.5331009,29.1418609 26.1718439,29.0351745 C26.3191144,29.7207658 26.3439449,30.3363989 26.3413763,30.6888138 C25.3173324,30.1991057 24.3592178,29.653431 23.514981,29.0439193 C23.0432016,28.703747 22.5679973,28.3373404 22.0893681,27.9481974 C22.0816621,27.3806606 22.0388509,26.4318512 21.8753121,25.2679199 C21.6047453,23.3440666 20.3700704,14.0133782 19.8674669,14.0842109 C19.3648635,14.1541692 18.5771374,15.7806998 19.2749599,19.9615828 C19.7784196,22.9732876 21.0139508,26.08993 21.6663935,27.5984059 C20.0729607,26.2604533 18.4615472,24.6855171 16.9263376,23.0292543 C17.2576963,21.8417121 18.2355041,17.9625243 17.9246948,14.5669232 C17.5530936,10.5005969 16.6951572,9.31130581 16.4973694,8.91429245 C16.2987255,8.51727909 15.5195617,11.2972471 15.8937315,15.9022523 C16.1685794,19.2812383 16.5393244,21.7350257 16.717419,22.8018898 C16.2148155,22.2553406 15.7207743,21.700921 15.2387202,21.1430036 C14.9270547,20.7827183 14.6196703,20.4206841 14.3191357,20.0603989 C14.4672624,18.7600489 14.8191705,14.8651205 14.1247728,12.1105124 C13.280536,8.75863523 12.9774327,7.39619731 12.401194,8.11501886 C11.8240991,8.83558936 12.205975,13.46508 12.8781108,16.3307469 C13.2051883,17.7229171 13.5416843,18.7469317 13.8011202,19.4316486 C12.8181751,18.2274914 11.9088652,17.0399492 11.1057272,15.9258632 C11.1528195,14.7899153 11.1785062,11.9443614 10.4652717,9.1512762 C9.54739957,5.55279606 8.50023767,5.23186235 8.59356608,6.95720897 C8.68689449,8.6816811 9.43095311,12.4366929 9.977224,14.0527297 C10.042297,14.2433661 10.1056576,14.4217597 10.1698744,14.5887852 C9.49003256,13.5866325 8.91978741,12.6736767 8.49081921,11.8988885 C8.37951009,11.2063013 8.16202921,10.1954039 7.74162324,8.78749303 C6.77323395,5.5554195 6.4641371,0.282312513 5.91101642,0.0234667971 C5.35789575,-0.235378919 4.17630668,1.64387596 5.13698996,5.82301 C5.76802702,8.5706223 7.06691876,10.8774973 7.88204397,12.1349978 C8.32471176,12.9430161 8.92064363,13.9014449 9.63473441,14.9543173 C8.42232129,14.2433661 5.95382762,12.8013506 4.52992718,12.0099473 C2.58972369,10.9334639 0.194865282,9.88758732 0.00735223573,10.2233872 C-0.180160811,10.559187 3.2584346,13.8900767 5.82196913,14.8616226 C7.70994296,15.5778207 9.27255168,15.5174816 9.96523686,15.4352806 C10.7589565,16.5808478 11.6811097,17.8208587 12.6923102,19.0923509 C12.385782,19.271619 11.8985906,19.518222 11.472191,19.5654439 C11.4884593,19.0774847 11.4131116,17.4360881 9.74004996,16.6438103 C7.76131639,15.708118 6.52236033,16.4837807 6.39135806,17.1457611 C6.2603558,17.808616 6.25008111,19.4692512 8.22196488,20.3813326 C9.39670415,20.9243839 10.5029455,20.9261328 11.1391199,20.219554 C11.842936,20.2938847 12.6914539,19.8540219 13.1050101,19.6074189 C13.6341565,20.261529 14.1855647,20.9217604 14.7532412,21.5776195 C15.0126771,21.8784402 15.2763941,22.1783864 15.5426797,22.4765837 C15.0178144,22.6532284 14.1658716,22.9111996 13.6564183,22.9138231 C11.9807881,22.3611525 9.11500647,21.4132175 7.68682491,20.919137 C5.59421356,20.1968175 3.06064687,19.5846824 2.93135705,19.9484656 C2.80292346,20.3131232 6.58400845,22.8832163 9.4378029,23.5032218 C11.3163583,23.9107289 13.1144286,23.7122222 14.1230604,23.5285817 C14.3371164,23.494477 14.5657282,23.4437572 14.7909151,23.3860416 C14.8996555,23.3589328 14.9578788,23.3414432 14.9578788,23.3414432 C15.3902719,23.224263 15.7909847,23.0887188 16.0213089,23.0073923 C17.0170974,24.1013653 18.0505597,25.1682294 19.0951529,26.1651352 C18.4975086,26.2534575 17.5642245,26.336533 16.7242688,26.1834992 C16.5358995,24.8744045 15.8260898,24.1092356 14.1059359,24.0961184 C12.252211,24.0812522 10.9302013,24.8709066 10.9173579,26.0628211 C10.9036583,27.2547357 12.4970911,28.4300352 14.6564879,28.0522603 C16.2499207,27.7741761 16.6574833,27.2494888 16.7465306,26.8542244 C17.9401068,27.037865 19.2424234,26.8201197 19.6962221,26.729174 C20.5918324,27.5573054 21.4917238,28.3268467 22.3813405,29.012438 C21.756297,29.0159359 20.9326095,28.9879526 20.2878729,28.8532829 L20.284448,28.8716469 C19.2672539,28.6346632 17.111282,28.395056 12.8481429,28.806061 C6.03003155,29.4645435 7.76902241,28.6110523 7.70908673,29.1156265 C7.64915106,29.6202008 11.9962001,31.878105 15.4913063,31.4618531 C17.9495253,31.1689027 19.7201964,30.1475115 20.555871,29.5668576 C21.599608,29.7146445 22.8548323,29.6665481 23.2341395,29.6473096 C23.8643204,30.0941683 24.5518682,30.5069222 25.281371,30.8890695 C23.9764857,31.0901996 20.636356,31.6997113 17.6823834,33.0446596 C13.9158542,34.760387 12.9294842,35.8770964 13.2959481,36.572307 C13.6624119,37.2675176 20.1577268,35.4013799 22.3856216,33.8421843 C24.0586832,32.6721317 25.1700619,31.5501754 25.6187232,31.0630907 C27.7909634,32.1561892 30.2885687,32.9825716 32.6663026,33.6008281 C30.9504298,33.5938323 28.0906418,33.6751588 25.7420195,34.1980971 C22.1253295,35.0026176 21.2399939,35.9278161 21.4763117,36.716596 C21.7126296,37.5062503 24.8549715,38.117511 28.569271,36.8503912 C31.4427586,35.8701005 33.229698,34.4831772 33.8924153,33.9042723 C38.2557326,34.9326593 41.9229398,35.2597144 41.942633,35.2614633 L42,34.6038553" id="Fill-6" fill="#5B622E"></path>
            </g>
            <path d="M15.8080141,81 L17.1583576,79.5753727 C17.3075384,79.2219768 17.4078496,78.9983435 17.4592913,78.9044727 L17.4592913,78.9044727 L17.8142387,78.2335726 C18.0302937,77.8304804 18.1563257,77.5985643 18.1923349,77.5378244 L18.1923349,77.5378244 L18.8250672,76.4693539 L19.6970033,75.0281612 C20.9367472,72.9133076 21.5566192,71.4472667 21.5566192,70.6300387 C21.5566192,69.9839867 21.2994109,69.5063501 20.7849943,69.1971287 L20.7849943,69.1971287 L19.6507058,70.5389288 C20.0416624,70.7763666 20.2371407,71.1546107 20.2371407,71.673661 C20.2371407,73.0044174 19.1131405,75.3594699 16.8651402,78.7388183 C16.5924994,77.2037548 16.2246916,75.4561016 15.7617166,73.4958586 C15.3450392,71.7509663 14.9772314,70.5982882 14.6582931,70.0378244 C14.3393549,69.4773606 13.8918125,69.1971287 13.3156659,69.1971287 C12.6160594,69.1971287 12.0399129,69.5836554 11.5872263,70.356709 C11.2117022,70.9972391 11.0162239,71.4886803 11.0007914,71.8310326 C10.9905031,72.0077305 11.080526,72.1181668 11.2708601,72.1623412 C11.5692217,71.057979 12.0553454,70.5057979 12.729231,70.5057979 C13.1201876,70.5057979 13.4378399,70.7860298 13.6821877,71.3464936 C13.9265356,71.9069575 14.2724807,73.13418 14.7200231,75.0281612 C15.2395838,77.2534511 15.6022475,79.2440641 15.8080141,81 L15.8080141,81 Z M24.2264411,71.673661 C25.6565191,70.7294313 26.3715581,69.8873551 26.3715581,69.1474324 C26.3715581,69.0646052 26.3458373,68.9845389 26.2943957,68.9072336 C25.9240157,69.3545003 25.4507525,69.7051353 24.874606,69.9591386 L24.874606,69.9591386 L24.2264411,71.673661 Z M23.6400062,80.884042 C24.1544228,80.884042 24.7125647,80.4864716 25.3144321,79.6913308 C25.7619745,79.1060188 25.9857457,78.7139702 25.9857457,78.515185 C25.9857457,78.4323578 25.9162995,78.3467697 25.777407,78.2584208 C25.3195763,79.2965213 24.874606,79.8155715 24.4424961,79.8155715 C24.3138919,79.8155715 24.2495898,79.6968526 24.2495898,79.4594147 C24.2495898,79.2827167 24.2830269,78.9320817 24.3499011,78.4075097 L24.3499011,78.4075097 L24.4270636,77.8774158 L24.7434297,75.5085588 C24.7948714,75.1054666 24.8231643,74.8818332 24.8283085,74.8376588 L24.8283085,74.8376588 L24.8977547,74.2827167 C24.938908,73.9403644 24.9594847,73.7139702 24.9594847,73.603534 C24.9594847,73.0292656 24.7665785,72.7421314 24.3807661,72.7421314 C24.036107,72.7421314 23.5744181,73.0265047 22.9956995,73.5952512 C22.4169809,74.1639978 22.1276215,74.6167863 22.1276215,74.9536168 C22.1276215,75.0474876 22.1764911,75.1413584 22.2742303,75.2352292 C22.7372052,74.2854776 23.1693151,73.8106019 23.57056,73.8106019 C23.7145966,73.8106019 23.7866149,73.9486472 23.7866149,74.2247377 C23.7866149,74.3572612 23.7737545,74.5201546 23.7480337,74.713418 L23.7480337,74.713418 L23.6863037,75.1689674 L23.6091412,75.7404749 L23.3082075,77.9933738 C23.1538826,79.158476 23.0767201,79.8542242 23.0767201,80.0806184 C23.0767201,80.6162341 23.2644821,80.884042 23.6400062,80.884042 Z M28.6169864,80.884042 C28.9822222,80.884042 29.4181902,80.6686913 29.9248905,80.2379901 C30.4315908,79.8072888 30.684941,79.4373274 30.684941,79.128106 C30.684941,79.0452789 30.6463597,78.9514081 30.5691973,78.8464936 C30.1113665,79.59746 29.6689683,79.9729431 29.2420025,79.9729431 C28.8459018,79.9729431 28.6478514,79.6609608 28.6478514,79.0369961 C28.6478514,78.7222529 28.6812885,78.2363335 28.7481626,77.579238 L28.7481626,77.579238 L29.1339751,73.9182772 L31.6031745,73.9182772 L32.5059756,72.9574821 L29.2342863,72.9574821 L29.4271925,71.0441745 L28.292904,71.4500276 L28.1308628,72.9574821 L27.3052242,72.9574821 L26.4024231,73.9182772 L28.0305515,73.9182772 L27.6524554,77.579238 C27.5650046,78.4075097 27.5212791,79.0066262 27.5212791,79.3765875 C27.5212791,80.3815572 27.8865149,80.884042 28.6169864,80.884042 Z M37.3517796,80.884042 C37.8661961,80.884042 38.4243381,80.4864716 39.0262055,79.6913308 C39.4686037,79.1060188 39.6898028,78.7167311 39.6898028,78.5234677 C39.6898028,78.4351187 39.6203566,78.3467697 39.4814641,78.2584208 C39.0287775,79.2965213 38.5863793,79.8155715 38.1542694,79.8155715 C38.0256653,79.8155715 37.9613632,79.6968526 37.9613632,79.4594147 C37.9613632,79.2827167 37.9948003,78.9320817 38.0616744,78.4075097 L38.0616744,78.4075097 L38.1311206,77.8774158 L38.6249605,74.216455 C38.6301047,74.1667587 38.6635418,73.9900607 38.7252718,73.6863611 L38.7252718,73.6863611 L38.8178667,73.2473771 C38.8230109,73.2252899 38.8384434,73.16455 38.8641642,73.0651574 C38.4886402,72.9215903 38.0333815,72.8498067 37.4983883,72.8498067 C36.0940311,72.8498067 34.878722,73.4641082 33.8524609,74.6927112 C32.8261999,75.9213142 32.3130694,77.374931 32.3130694,79.0535616 C32.3130694,80.2738818 32.6654447,80.884042 33.3701954,80.884042 C33.884612,80.884042 34.4903375,80.5568747 35.1873719,79.90254 C35.8844063,79.2482054 36.5235689,78.4075097 37.1048596,77.3804528 L37.1048596,77.3804528 L37.0199809,77.9933738 L36.9196697,78.7222529 L36.8425072,79.3848702 C36.806498,79.6775262 36.7884934,79.9066814 36.7884934,80.0723357 C36.7884934,80.6134732 36.9762555,80.884042 37.3517796,80.884042 Z M34.1726852,79.6747653 C33.7765845,79.6747653 33.5785341,79.3158476 33.5785341,78.5980121 C33.5785341,77.2009939 33.822882,76.03037 34.3115777,75.0861403 C34.8002734,74.1419105 35.4047129,73.6697957 36.1248961,73.6697957 C36.6033035,73.6697957 37.0765667,73.8106019 37.5446858,74.0922142 L37.5446858,74.0922142 L37.4212258,74.9867477 C37.2360358,76.350635 36.7061868,77.5378244 35.8316786,78.5483158 C35.1835138,79.2992822 34.630516,79.6747653 34.1726852,79.6747653 Z M42.1975835,80.884042 C43.0566592,80.884042 43.9260232,80.3373827 44.8056755,79.2440641 C45.1349021,78.8299282 45.2995154,78.5372722 45.2995154,78.3660961 C45.2995154,78.2390944 45.2352133,78.1286582 45.1066092,78.0347874 C44.5561834,79.2219768 43.8488607,79.8155715 42.9846409,79.8155715 C42.1101327,79.8155715 41.621437,79.1501933 41.5185537,77.8194368 C42.5731076,77.5157372 43.4669064,76.9773606 44.19995,76.204307 C44.9329936,75.4312535 45.2995154,74.6388736 45.2995154,73.8271673 C45.2995154,73.10381 44.9857213,72.7421314 44.3581331,72.7421314 C43.4887691,72.7421314 42.6104028,73.3868029 41.7230343,74.6761458 C40.8356657,75.9654887 40.3919814,77.2396466 40.3919814,78.4986195 C40.3919814,79.1943678 40.5617389,79.7658752 40.9012538,80.2131419 C41.2407687,80.6604086 41.6728786,80.884042 42.1975835,80.884042 Z M41.9583798,76.8917725 C41.8349199,76.8917725 41.6985995,76.8641634 41.5494187,76.8089453 C41.6471578,75.9475428 41.8747871,75.2338487 42.2323066,74.6678631 C42.5898262,74.1018774 42.989785,73.8188846 43.4321833,73.8188846 C44.044339,73.8188846 44.3504168,74.1419105 44.3504168,74.7879625 C44.3504168,75.3511872 44.1112131,75.8426284 43.6328057,76.262286 C43.1543983,76.6819437 42.5962564,76.8917725 41.9583798,76.8917725 Z M62.8153992,80.9834346 L65.0068137,80.503037 L65.4157748,80.3953617 C65.7655781,80.3070127 65.9404797,80.1717283 65.9404797,79.9895086 C65.9404797,79.9398123 65.917331,79.8818332 65.8710335,79.8155715 C65.5829602,79.9260077 65.2563057,79.9812258 64.89107,79.9812258 C64.5464109,79.9812258 64.3213536,79.8473219 64.2158982,79.5795141 C64.1104428,79.3117062 64.0577151,78.747101 64.0577151,77.8856985 L64.0577151,77.8856985 L64.0808639,76.8669244 L64.1811751,74.158476 C64.1811751,72.9105467 64.3457884,71.2567642 64.675015,69.1971287 L64.675015,69.1971287 L63.1857791,70.1993374 C62.9903008,70.591386 62.8591246,70.8509111 62.7922504,70.9779128 L62.7922504,70.9779128 L62.0823556,72.3694092 L61.4959207,73.5289895 L60.7397283,74.9287686 C60.3899251,75.5748205 59.9938243,76.292656 59.5514261,77.082275 L59.5514261,77.082275 L59.1501812,77.7945886 C59.0370095,77.3473219 58.9032612,76.8972943 58.7489363,76.4445058 L58.7489363,76.4445058 L58.4634351,75.5831033 C58.3605518,75.2794036 58.2859614,75.0612921 58.2396639,74.9287686 L58.2396639,74.9287686 L57.8924327,73.9845389 C57.2031145,72.0960795 56.8584554,70.7266703 56.8584554,69.8763114 C56.8584554,69.8045279 56.8610275,69.6885699 56.8661717,69.5284373 L56.8661717,69.5284373 L56.7658604,69.5284373 C56.7247071,69.5284373 56.6424005,69.5229155 56.5189405,69.5118719 C56.3337505,69.4897846 56.1202677,69.478741 55.8784919,69.478741 C54.4175489,69.478741 53.2048118,69.9301491 52.2402808,70.8329652 C51.2757497,71.7357813 50.7934842,72.871894 50.7934842,74.2413031 C50.7934842,74.6720044 50.8526421,75.1027057 50.9709579,75.533407 L50.9709579,75.533407 L52.2287064,74.2413031 C51.9869306,73.7609056 51.8660427,73.2832689 51.8660427,72.8083932 C51.8660427,71.2898951 52.9360292,70.5306461 55.076002,70.5306461 L55.076002,70.5306461 L55.4386657,70.5306461 L54.5127159,76.3533959 C54.3223818,77.5461071 54.1551964,78.338487 54.0111598,78.7305356 C53.8671231,79.1225842 53.6253474,79.4538929 53.2858324,79.7244616 L53.2858324,79.7244616 L52.4138964,79.6416345 L51.4185003,80.6686913 L54.7133384,80.8509111 L55.7010182,79.8818332 L53.7565236,79.7244616 C54.265796,79.4373274 54.6207434,79.0715075 54.8213658,78.6270017 C55.0219883,78.1824959 55.2148945,77.344561 55.4000845,76.1131971 L55.4000845,76.1131971 L56.0251006,72.0132523 C56.1691372,72.7090006 56.3877643,73.4378796 56.6809817,74.1998896 C56.8250183,74.5864163 56.9176133,74.829376 56.9587666,74.9287686 L56.9587666,74.9287686 L57.2597003,75.765323 C57.9541627,77.6537824 58.337403,79.1198233 58.4094213,80.1634456 L58.4094213,80.1634456 L59.5205611,78.9210381 C59.9115177,77.8332413 60.4233622,76.7040309 61.0560945,75.533407 L61.0560945,75.533407 L61.5190694,74.6802871 C61.879161,74.0066262 62.4141542,73.1286582 63.1240491,72.0463832 C62.8925616,74.2330204 62.7768179,76.7344009 62.7768179,79.5505246 C62.7768179,79.9867477 62.7896783,80.4643843 62.8153992,80.9834346 L62.8153992,80.9834346 Z M71.3804348,80.884042 C71.8948514,80.884042 72.4529934,80.4864716 73.0548607,79.6913308 C73.497259,79.1060188 73.7184581,78.7167311 73.7184581,78.5234677 C73.7184581,78.4351187 73.6490118,78.3467697 73.5101194,78.2584208 C73.0574328,79.2965213 72.6150346,79.8155715 72.1829247,79.8155715 C72.0543205,79.8155715 71.9900185,79.6968526 71.9900185,79.4594147 C71.9900185,79.2827167 72.0234555,78.9320817 72.0903297,78.4075097 L72.0903297,78.4075097 L72.1597759,77.8774158 L72.6536158,74.216455 C72.65876,74.1667587 72.6921971,73.9900607 72.753927,73.6863611 L72.753927,73.6863611 L72.846522,73.2473771 C72.8516662,73.2252899 72.8670987,73.16455 72.8928195,73.0651574 C72.5172954,72.9215903 72.0620368,72.8498067 71.5270435,72.8498067 C70.1226863,72.8498067 68.9073772,73.4641082 67.8811162,74.6927112 C66.8548552,75.9213142 66.3417247,77.374931 66.3417247,79.0535616 C66.3417247,80.2738818 66.6941,80.884042 67.3988507,80.884042 C67.9132672,80.884042 68.5189927,80.5568747 69.2160272,79.90254 C69.9130616,79.2482054 70.5522242,78.4075097 71.1335149,77.3804528 L71.1335149,77.3804528 L71.0486362,77.9933738 L70.9483249,78.7222529 L70.8711624,79.3848702 C70.8351533,79.6775262 70.8171487,79.9066814 70.8171487,80.0723357 C70.8171487,80.6134732 71.0049107,80.884042 71.3804348,80.884042 Z M68.2013405,79.6747653 C67.8052398,79.6747653 67.6071894,79.3158476 67.6071894,78.5980121 C67.6071894,77.2009939 67.8515372,76.03037 68.340233,75.0861403 C68.8289287,74.1419105 69.4333682,73.6697957 70.1535513,73.6697957 C70.6319587,73.6697957 71.105222,73.8106019 71.573341,74.0922142 L71.573341,74.0922142 L71.4498811,74.9867477 C71.2646911,76.350635 70.7348421,77.5378244 69.8603339,78.5483158 C69.212169,79.2992822 68.6591712,79.6747653 68.2013405,79.6747653 Z M75.392884,80.8177802 L76.5348887,80.4036444 L76.7432274,78.3826615 C76.8461108,77.3776919 77.194628,76.4099945 77.7887791,75.4795693 C78.3829302,74.5491441 78.9475024,74.0839315 79.4824956,74.0839315 C79.7397039,74.0839315 79.9506147,74.1336278 80.115228,74.2330204 L80.115228,74.2330204 L81.203219,72.9574821 C80.9151457,72.813915 80.6270724,72.7421314 80.3389992,72.7421314 C79.2330036,72.7421314 78.1090034,73.9044727 76.9669986,76.2291552 L76.9669986,76.2291552 L77.0364449,75.5499724 L77.1058911,74.8542242 L77.1599049,74.274434 C77.1856257,74.0204307 77.1984861,73.8188846 77.1984861,73.6697957 C77.1984861,73.0513528 76.9798591,72.7421314 76.542605,72.7421314 C76.2185226,72.7421314 75.7774104,73.0196024 75.2192684,73.5745445 C74.6611264,74.1294865 74.3743392,74.5753727 74.3589067,74.9122032 C74.3537625,75.0226394 74.4154925,75.1303147 74.5440967,75.2352292 C74.9504857,74.2909994 75.3594469,73.8188846 75.7709801,73.8188846 C75.9458818,73.8188846 76.0333326,73.9872998 76.0333326,74.3241303 C76.0333326,74.5284373 76.015328,74.7934843 75.9793189,75.1192711 L75.9793189,75.1192711 L75.9330214,75.5499724 L75.5317764,79.4925456 L75.4700465,80.0309221 L75.4160327,80.5692987 L75.392884,80.8177802 Z M85.7635218,80.884042 C86.051595,80.8729983 86.4322633,80.6410823 86.9055265,80.1882938 C87.3787898,79.7355052 87.6154214,79.3793484 87.6154214,79.1198233 C87.6154214,79.0314743 87.5562635,78.9403644 87.4379477,78.8464936 C87.0572794,79.4925456 86.6946157,79.8155715 86.3499567,79.8155715 C85.8715493,79.8155715 85.1436498,78.8741027 84.1662584,76.9911651 C85.0664873,76.7371618 85.7905286,76.3216455 86.3383823,75.7446162 C86.8862359,75.167587 87.1601627,74.5311982 87.1601627,73.83545 C87.1601627,73.106571 86.8309361,72.7421314 86.1724829,72.7421314 C85.6837872,72.7421314 85.1475079,73.0016565 84.5636452,73.5207068 C83.9797824,74.039757 83.4949448,74.6858089 83.1091323,75.4588625 L83.1091323,75.4588625 L83.5721072,70.9861955 C83.8396039,68.4240751 84.7372607,67.1430149 86.2650779,67.1430149 C86.5274304,67.1430149 86.8052153,67.1899503 87.0984327,67.2838211 L87.0984327,67.2838211 L88.2327213,66.0911099 C87.9960896,66.03037 87.7491697,66 87.4919614,66 C86.2470733,66 85.1230732,66.6046383 84.1199609,67.813915 C83.1168486,69.0231916 82.5278416,70.4864716 82.35294,72.2037548 L82.35294,72.2037548 L81.5967477,79.4594147 L81.5350177,80.0392049 L81.4732877,80.6521259 L81.4501389,80.884042 L82.5998599,80.3787962 L82.9470911,76.9911651 L83.1399973,77.3638874 C84.3745971,79.7382662 85.2491052,80.911651 85.7635218,80.884042 Z M82.9702399,76.7426836 C83.2788898,75.8868029 83.6531278,75.1758697 84.092954,74.609884 C84.5327802,74.0438984 84.932739,73.7609056 85.2928306,73.7609056 C85.6837872,73.7609056 85.8792655,74.0590834 85.8792655,74.655439 C85.8792655,75.2462728 85.6014806,75.7418553 85.0459107,76.1421866 C84.4903408,76.5425179 83.7984505,76.7426836 82.9702399,76.7426836 Z M90.1154859,80.884042 C90.9745615,80.884042 91.8439255,80.3373827 92.7235778,79.2440641 C93.0528044,78.8299282 93.2174177,78.5372722 93.2174177,78.3660961 C93.2174177,78.2390944 93.1531156,78.1286582 93.0245115,78.0347874 C92.4740858,79.2219768 91.766763,79.8155715 90.9025432,79.8155715 C90.028035,79.8155715 89.5393393,79.1501933 89.436456,77.8194368 C90.4910099,77.5157372 91.3848087,76.9773606 92.1178523,76.204307 C92.8508959,75.4312535 93.2174177,74.6388736 93.2174177,73.8271673 C93.2174177,73.10381 92.9036236,72.7421314 92.2760354,72.7421314 C91.4066714,72.7421314 90.5283051,73.3868029 89.6409366,74.6761458 C88.753568,75.9654887 88.3098837,77.2396466 88.3098837,78.4986195 C88.3098837,79.1943678 88.4796412,79.7658752 88.8191561,80.2131419 C89.1586711,80.6604086 89.590781,80.884042 90.1154859,80.884042 Z M89.8762822,76.8917725 C89.7528222,76.8917725 89.6165018,76.8641634 89.467321,76.8089453 C89.5650601,75.9475428 89.7926895,75.2338487 90.150209,74.6678631 C90.5077285,74.1018774 90.9076873,73.8188846 91.3500856,73.8188846 C91.9622413,73.8188846 92.2683191,74.1419105 92.2683191,74.7879625 C92.2683191,75.3511872 92.0291154,75.8426284 91.550708,76.262286 C91.0723006,76.6819437 90.5141587,76.8917725 89.8762822,76.8917725 Z M96.1110108,80.884042 C96.4762466,80.884042 96.9122146,80.6686913 97.4189149,80.2379901 C97.9256152,79.8072888 98.1789654,79.4373274 98.1789654,79.128106 C98.1789654,79.0452789 98.1403841,78.9514081 98.0632217,78.8464936 C97.6053909,79.59746 97.1629927,79.9729431 96.7360269,79.9729431 C96.3399262,79.9729431 96.1418758,79.6609608 96.1418758,79.0369961 C96.1418758,78.7222529 96.1753129,78.2363335 96.242187,77.579238 L96.242187,77.579238 L96.6279995,73.9182772 L99.0971989,73.9182772 L100,72.9574821 L96.7283107,72.9574821 L96.9212169,71.0441745 L95.7869284,71.4500276 L95.6248872,72.9574821 L94.7992486,72.9574821 L93.8964475,73.9182772 L95.524576,73.9182772 L95.1464798,77.579238 C95.059029,78.4075097 95.0153036,79.0066262 95.0153036,79.3765875 C95.0153036,80.3815572 95.3805393,80.884042 96.1110108,80.884042 Z" id="VitaeMarket" fill="#000000" fill-rule="nonzero"></path>
            <path d="M36.4935986,89.5817061 L36.4935986,89.3473792 C36.1124521,89.307297 36.0659708,89.2672148 36.0659708,89.0914697 L36.0659708,87.1613566 C36.1868221,86.9701953 36.4409198,86.8129496 36.8034739,86.8129496 C37.2589905,86.8129496 37.5440757,87.0842754 37.5440757,87.5899281 L37.5440757,89.0914697 C37.5440757,89.2672148 37.4975944,89.307297 37.1195466,89.3473792 L37.1195466,89.5817061 L38.6131452,89.5817061 L38.6131452,89.3473792 C38.2041099,89.307297 38.1576286,89.2641316 38.1576286,89.0791367 L38.1576286,87.4203494 C38.1576286,86.7913669 37.7176058,86.4275437 37.0761641,86.4275437 C36.6051537,86.4275437 36.2487972,86.631038 36.0659708,86.9116136 L36.0659708,85 L35,85.1294964 L35,85.3329908 L35.2479002,85.3915725 C35.4276278,85.4347379 35.4555166,85.4779034 35.4555166,85.6443988 L35.4555166,89.0791367 C35.4555166,89.2641316 35.4059366,89.307297 35,89.3473792 L35,89.5817061 L36.4935986,89.5817061 Z M40.6211368,89.6495375 C41.1479247,89.6495375 41.5631575,89.4583762 41.7862676,89.2024666 L41.7862676,88.9681398 C41.5910462,89.1500514 41.268776,89.2641316 40.955802,89.2641316 C40.2213977,89.2641316 39.7379923,88.7646454 39.7070048,87.9722508 L41.8513414,87.9722508 C41.8575389,87.9167523 41.8606377,87.8365879 41.8606377,87.7595067 C41.8606377,86.9362795 41.3989236,86.4306269 40.5591617,86.4306269 C39.6884123,86.4306269 39.0810568,87.0996917 39.0810568,88.061665 C39.0810568,89.0544707 39.7472886,89.6495375 40.6211368,89.6495375 Z M41.268776,87.700925 L39.7101036,87.700925 C39.7627824,87.0472765 40.0974476,86.7482014 40.5498654,86.7482014 C41.0084808,86.7482014 41.268776,87.0781089 41.268776,87.6947585 L41.268776,87.700925 Z M43.3914213,89.6495375 C43.8469379,89.6495375 44.2311832,89.4398767 44.4140096,89.2024666 C44.4821822,89.4799589 44.7021936,89.631038 45.0120688,89.631038 C45.2320802,89.631038 45.4087091,89.5570401 45.5140667,89.4861254 L45.5140667,89.270298 C45.4675854,89.2918808 45.4025116,89.3011305 45.3343391,89.3011305 C45.1484139,89.3011305 44.9934763,89.2055498 44.9934763,88.9280576 L44.9934763,87.3926002 C44.9934763,86.729702 44.5503547,86.4275437 43.8500367,86.4275437 C43.1559162,86.4275437 42.5640545,86.717369 42.5640545,87.1459404 C42.5640545,87.3463515 42.7220908,87.4881809 42.920411,87.4881809 C43.1218299,87.4881809 43.2736688,87.3494347 43.2736688,87.1613566 C43.2736688,87.0349435 43.2054962,86.9239466 43.1063361,86.8684481 C43.2488787,86.7882837 43.4348039,86.7482014 43.6393215,86.7482014 C44.0824431,86.7482014 44.3923184,86.9301131 44.3923184,87.4820144 L44.3923184,87.725591 L43.6548153,87.8859198 C42.8212509,88.0678314 42.4679932,88.3545735 42.4679932,88.8633094 C42.4679932,89.31963 42.8646335,89.6495375 43.3914213,89.6495375 Z M43.6920003,89.2918808 C43.3387426,89.2918808 43.0877436,89.0914697 43.0877436,88.7553957 C43.0877436,88.4254882 43.3170513,88.2404933 43.9182092,88.1079137 L44.3923184,88.0061665 L44.3923184,88.9619733 C44.2497757,89.1654676 43.9925793,89.2918808 43.6920003,89.2918808 Z M47.3268368,89.5817061 L47.3268368,89.3473792 C46.9209003,89.307297 46.8713202,89.2641316 46.8713202,89.0791367 L46.8713202,85.0030832 L45.8053494,85.1294964 L45.8053494,85.3329908 L46.0532496,85.3915725 C46.2329772,85.4347379 46.260866,85.4779034 46.260866,85.6443988 L46.260866,89.0791367 C46.260866,89.2641316 46.211286,89.307297 45.8053494,89.3473792 L45.8053494,89.5817061 L47.3268368,89.5817061 Z M48.9350893,89.6495375 C49.2356683,89.6495375 49.5827285,89.5292909 49.7345674,89.3967112 L49.7345674,89.1623844 C49.6137161,89.2332991 49.4339884,89.2918808 49.2542608,89.2918808 C48.9350893,89.2918808 48.6995841,89.1253854 48.6995841,88.5704008 L48.6995841,86.8067831 L49.6818886,86.8191161 L49.6818886,86.4953751 L48.6995841,86.5138746 L48.6995841,85.9218911 L48.5911278,85.9218911 L47.6646008,86.655704 L47.6646008,86.8191161 L48.0891299,86.8191161 L48.0891299,88.72148 C48.0891299,89.4337102 48.5105602,89.6495375 48.9350893,89.6495375 Z M51.5318438,89.5817061 L51.5318438,89.3473792 C51.1506972,89.307297 51.1042159,89.2672148 51.1042159,89.0914697 L51.1042159,87.1613566 C51.2250673,86.9701953 51.479165,86.8129496 51.841719,86.8129496 C52.2972356,86.8129496 52.5823208,87.0842754 52.5823208,87.5899281 L52.5823208,89.0914697 C52.5823208,89.2672148 52.5358395,89.307297 52.1577917,89.3473792 L52.1577917,89.5817061 L53.6513904,89.5817061 L53.6513904,89.3473792 C53.2423551,89.307297 53.1958738,89.2641316 53.1958738,89.0791367 L53.1958738,87.4203494 C53.1958738,86.7913669 52.7558509,86.4275437 52.1144092,86.4275437 C51.6433988,86.4275437 51.2870423,86.631038 51.1042159,86.9116136 L51.1042159,85 L50.0382451,85.1294964 L50.0382451,85.3329908 L50.2861453,85.3915725 C50.465873,85.4347379 50.4937617,85.4779034 50.4937617,85.6443988 L50.4937617,89.0791367 C50.4937617,89.2641316 50.4441817,89.307297 50.0382451,89.3473792 L50.0382451,89.5817061 L51.5318438,89.5817061 Z M55.1171002,91 L55.6345919,89.5817061 L55.8638995,89.0298047 L56.6106989,87.2322713 C56.784229,86.8129496 56.846204,86.7759507 57.1622768,86.729702 L57.1622768,86.4953751 L55.9289733,86.4953751 L55.9289733,86.729702 C56.3566012,86.7636177 56.43407,86.8314491 56.2977249,87.1767729 L55.6314931,88.8509764 L55.0024464,87.1767729 C54.8753975,86.8345324 54.9466688,86.7667009 55.3711979,86.729702 L55.3711979,86.4953751 L53.8404143,86.4953751 L53.8404143,86.729702 C54.144092,86.7913669 54.2246595,86.8561151 54.3764984,87.2261048 L55.3247166,89.5416238 C55.0706189,90.028777 54.7545462,90.626927 54.5593248,90.987667 L54.5593248,91 L55.1171002,91 Z M60.2269428,89.6495375 C60.5275218,89.6495375 60.8745821,89.5292909 61.0264209,89.3967112 L61.0264209,89.1623844 C60.9055696,89.2332991 60.725842,89.2918808 60.5461143,89.2918808 C60.2269428,89.2918808 59.9914377,89.1253854 59.9914377,88.5704008 L59.9914377,86.8067831 L60.9737422,86.8191161 L60.9737422,86.4953751 L59.9914377,86.5138746 L59.9914377,85.9218911 L59.8829813,85.9218911 L58.9564544,86.655704 L58.9564544,86.8191161 L59.3809834,86.8191161 L59.3809834,88.72148 C59.3809834,89.4337102 59.8024138,89.6495375 60.2269428,89.6495375 Z M62.3402919,89.6495375 C62.7958085,89.6495375 63.1800538,89.4398767 63.3628802,89.2024666 C63.4310528,89.4799589 63.6510642,89.631038 63.9609394,89.631038 C64.1809508,89.631038 64.3575797,89.5570401 64.4629373,89.4861254 L64.4629373,89.270298 C64.416456,89.2918808 64.3513822,89.3011305 64.2832097,89.3011305 C64.0972845,89.3011305 63.9423469,89.2055498 63.9423469,88.9280576 L63.9423469,87.3926002 C63.9423469,86.729702 63.4992253,86.4275437 62.7989073,86.4275437 C62.1047868,86.4275437 61.5129251,86.717369 61.5129251,87.1459404 C61.5129251,87.3463515 61.6709614,87.4881809 61.8692816,87.4881809 C62.0707005,87.4881809 62.2225393,87.3494347 62.2225393,87.1613566 C62.2225393,87.0349435 62.1543668,86.9239466 62.0552067,86.8684481 C62.1977493,86.7882837 62.3836745,86.7482014 62.5881921,86.7482014 C63.0313137,86.7482014 63.3411889,86.9301131 63.3411889,87.4820144 L63.3411889,87.725591 L62.6036859,87.8859198 C61.7701215,88.0678314 61.4168637,88.3545735 61.4168637,88.8633094 C61.4168637,89.31963 61.813504,89.6495375 62.3402919,89.6495375 Z M62.6408709,89.2918808 C62.2876131,89.2918808 62.0366142,89.0914697 62.0366142,88.7553957 C62.0366142,88.4254882 62.2659219,88.2404933 62.8670798,88.1079137 L63.3411889,88.0061665 L63.3411889,88.9619733 C63.1986463,89.1654676 62.9414499,89.2918808 62.6408709,89.2918808 Z M66.0402022,89.6372045 C66.7157302,89.6372045 67.2611107,89.2795478 67.2611107,88.7276465 C67.2611107,88.2158273 66.9109516,87.9414183 66.3345837,87.7872559 L66.0835848,87.7194245 C65.6900432,87.614594 65.454538,87.4850976 65.454538,87.2014388 C65.454538,86.9177801 65.717932,86.7482014 66.105276,86.7482014 C66.5205088,86.7482014 66.8458778,86.9825283 66.9326429,87.4326824 L67.1495556,87.4326824 L67.1247656,86.6618705 C66.9419392,86.5385406 66.5824839,86.4275437 66.1021773,86.4275437 C65.3739705,86.4275437 64.8998614,86.7605344 64.8998614,87.3001028 C64.8998614,87.7965057 65.2686129,88.0647482 65.8387833,88.2189106 L66.092881,88.286742 C66.5329039,88.4069887 66.706434,88.5519013 66.706434,88.8263104 C66.706434,89.1130524 66.4461388,89.3165468 66.0340047,89.3165468 C65.5784881,89.3165468 65.1942428,89.0791367 65.0826878,88.5673176 L64.8657751,88.5673176 L64.8905651,89.3535457 C65.1229715,89.5077081 65.5413031,89.6372045 66.0402022,89.6372045 Z M69.0057082,89.6495375 C69.3062872,89.6495375 69.6533475,89.5292909 69.8051863,89.3967112 L69.8051863,89.1623844 C69.684335,89.2332991 69.5046074,89.2918808 69.3248797,89.2918808 C69.0057082,89.2918808 68.770203,89.1253854 68.770203,88.5704008 L68.770203,86.8067831 L69.7525075,86.8191161 L69.7525075,86.4953751 L68.770203,86.5138746 L68.770203,85.9218911 L68.6617467,85.9218911 L67.7352198,86.655704 L67.7352198,86.8191161 L68.1597488,86.8191161 L68.1597488,88.72148 C68.1597488,89.4337102 68.5811792,89.6495375 69.0057082,89.6495375 Z M71.7604991,89.6495375 C72.287287,89.6495375 72.7025198,89.4583762 72.9256299,89.2024666 L72.9256299,88.9681398 C72.7304085,89.1500514 72.4081383,89.2641316 72.0951643,89.2641316 C71.36076,89.2641316 70.8773546,88.7646454 70.8463671,87.9722508 L72.9907037,87.9722508 C72.9969012,87.9167523 73,87.8365879 73,87.7595067 C73,86.9362795 72.5382859,86.4306269 71.698524,86.4306269 C70.8277746,86.4306269 70.2204191,87.0996917 70.2204191,88.061665 C70.2204191,89.0544707 70.8866509,89.6495375 71.7604991,89.6495375 Z M72.4081383,87.700925 L70.8494659,87.700925 C70.9021447,87.0472765 71.2368099,86.7482014 71.6892278,86.7482014 C72.1478431,86.7482014 72.4081383,87.0781089 72.4081383,87.6947585 L72.4081383,87.700925 Z" id="healthytaste" fill="#000000" fill-rule="nonzero"></path>
        </g>
    </g>
</svg>